<?xml version="1.0" encoding="UTF-8"?>
<svg width="258px" height="190px" viewBox="0 0 258 190" version="1.1" xmlns="http://www.w3.org/2000/svg" xmlns:xlink="http://www.w3.org/1999/xlink">
    <title>3A9CD5AA-8DE3-4672-B20B-B2E858F4571F</title>
    <g id="Page-1" stroke="none" stroke-width="1" fill="none" fill-rule="evenodd" opacity="0.0748232887">
        <g id="Landing---VD" transform="translate(-31.000000, -590.000000)" fill="#FFFFFF" fill-rule="nonzero">
            <g id="Content" transform="translate(31.000000, 260.000000)">
                <path d="M252.887286,437.132592 C246.375704,430.395609 235.773514,430.270387 229.261932,437.024065 L226.173105,440.17133 C224.169541,440.505257 221.999014,439.854099 220.41286,438.217855 C218.492778,436.189247 217.991887,433.259036 218.910187,430.762929 L234.771732,414.433887 C241.283313,407.705252 241.283313,396.760786 234.771732,390.007108 C228.26015,383.270125 217.574478,383.144903 211.062897,389.898581 L158.552836,444.228546 C156.382308,444.696044 154.044818,444.069931 152.458663,442.350205 C150.4551,440.321597 149.954209,437.366341 150.95599,434.870235 L203.048642,381.116294 C209.560224,374.379312 209.560224,363.443194 203.048642,356.681167 C196.453579,349.952533 185.851389,349.818962 179.339807,356.580989 L160.305954,376.232608 C157.968463,377.008989 155.380527,376.466357 153.460445,374.537928 C151.540363,372.484275 151.039472,369.470581 152.041254,366.974475 L159.304172,359.544594 C165.815753,352.807611 165.815753,341.863145 159.304172,335.109467 C152.709109,328.380832 142.106918,328.247262 135.595337,335.009289 L68.1420308,404.716603 C65.8880218,405.28428 63.4670492,404.691559 61.7139311,402.8967 C59.7938494,400.893136 59.2929585,397.929532 60.2112585,395.466818 L86.007139,368.819423 C92.5187205,362.090789 92.5187205,351.146323 86.007139,344.384296 C79.4955575,337.655662 68.8933671,337.530439 62.2983038,344.284118 L4.94629749,403.706473 C-1.64876583,410.435108 -1.64876583,421.379573 4.94629749,428.133252 C11.457879,434.870235 22.0600694,434.870235 28.5716509,428.133252 L40.6765139,415.636025 C43.0974866,414.701028 45.9358682,415.24366 47.85595,417.247224 C49.6090681,419.042083 50.1934408,421.588278 49.6090681,423.900724 L28.9055782,445.238676 C22.3939966,451.96731 22.3939966,462.911776 28.9055782,469.673803 C35.5006415,476.402437 46.1028319,476.402437 52.6144134,469.673803 L132.339546,387.352386 C134.760519,386.342256 137.682382,386.884888 139.685946,388.913496 C141.522545,390.833578 142.023436,393.588478 141.2721,395.984406 L75.237985,464.164003 C68.7264035,470.892637 68.7264035,481.837103 75.237985,488.590782 C81.7495665,495.327764 92.3517569,495.327764 98.8633384,488.590782 L131.337764,455.08953 C133.758737,454.129489 136.597118,454.672121 138.600682,456.675684 C140.270318,458.387062 140.854691,460.808034 140.3538,463.020302 L135.344891,468.271308 C128.83331,474.999943 128.83331,485.944409 135.344891,492.698087 C141.856473,499.43507 152.458663,499.43507 158.970245,492.698087 L199.375443,451.007269 C201.796415,450.072273 204.634797,450.58986 206.554879,452.593424 C208.141033,454.229667 208.808888,456.492024 208.391479,458.595766 L178.171062,489.893098 C171.575999,496.621733 171.575999,507.566198 178.171062,514.328225 C184.682643,521.05686 195.284834,521.05686 201.796415,514.328225 L252.887286,461.584415 C259.482349,454.830736 259.482349,443.886271 252.887286,437.132592 Z" id="Path"></path>
            </g>
        </g>
    </g>
</svg>