<?xml version="1.0" encoding="UTF-8"?>
<svg width="197px" height="41px" viewBox="0 0 197 41" version="1.1" xmlns="http://www.w3.org/2000/svg" xmlns:xlink="http://www.w3.org/1999/xlink">
    <title>shopbrainsvgwhite</title>
    <g id="Page-1" stroke="none" stroke-width="1" fill="none" fill-rule="evenodd">
        <g id="Landing---VD" transform="translate(-150.000000, -29.000000)" fill="#FFFFFF" fill-rule="nonzero">
            <g id="shopbrainsvgwhite" transform="translate(150.000000, 29.000000)">
                <circle id="circle4" cx="176.547802" cy="10.0697802" r="2.65824176"></circle>
                <path d="M45.7082418,18.9456044 C45.1470236,18.3832343 44.3851567,18.0672011 43.5906593,18.0672011 C42.796162,18.0672011 42.0342951,18.3832343 41.4730769,18.9456044 L40.9324176,19.4862637 C40.571978,19.5313187 40.1664835,19.4412088 39.8961538,19.1708791 C39.5357143,18.8104396 39.4456044,18.3148352 39.6258242,17.8642857 L42.4642857,15.0258242 C43.2604352,14.2775753 43.5861621,13.1552707 43.3143039,12.0970535 C43.0424457,11.0388364 42.2161087,10.2124994 41.1578915,9.94064119 C40.0996744,9.66878298 38.9773698,9.99450983 38.2291209,10.7906593 L28.8126374,20.2071429 C28.4521978,20.2972527 28.0016484,20.1620879 27.7313187,19.8917582 C27.3708791,19.5313187 27.2807692,19.0357143 27.460989,18.5851648 L36.7873626,9.25879121 C37.5835121,8.5105423 37.909239,7.38823773 37.6373808,6.33002056 C37.3655226,5.27180339 36.5391856,4.44546644 35.4809684,4.17360822 C34.4227513,3.90175001 33.3004467,4.22747687 32.5521978,5.02362637 L29.128022,8.4478022 C28.6857648,8.60401229 28.1929903,8.48465691 27.8712269,8.14339267 C27.5494635,7.80212842 27.4592761,7.30319091 27.6412088,6.87087912 L28.9478022,5.56428571 C29.7439517,4.81603681 30.0696786,3.69373224 29.7978203,2.63551507 C29.5259621,1.5772979 28.6996252,0.750960942 27.641408,0.479102729 C26.5831908,0.207244516 25.4608863,0.532971372 24.7126374,1.32912088 L12.6379121,13.3137363 C12.2324176,13.4038462 11.7818681,13.3137363 11.5115385,12.9983516 C11.1510989,12.6379121 11.060989,12.1423077 11.2412088,11.6917582 L15.8368132,7.09615385 C16.6329627,6.34790494 16.9586896,5.22560037 16.6868313,4.1673832 C16.4149731,3.10916603 15.5886362,2.28282907 14.530419,2.01097086 C13.4722018,1.73911265 12.3498973,2.0648395 11.6016484,2.86098901 L1.32912088,13.1785714 C0.532971372,13.9268203 0.207244516,15.0491249 0.479102729,16.1073421 C0.750960942,17.1655592 1.5772979,17.9918962 2.63551507,18.2637544 C3.69373224,18.5356126 4.81603681,18.2098858 5.56428571,17.4137363 L7.72692308,15.2510989 C8.17747253,15.0708791 8.67307692,15.160989 8.98846154,15.5214286 C9.30384615,15.8368132 9.39395604,16.2873626 9.30384615,16.6928571 L5.60934066,20.3873626 C4.81319115,21.1356115 4.4874643,22.2579161 4.75932251,23.3161333 C5.03118072,24.3743505 5.85751768,25.2006874 6.91573485,25.4725456 C7.97395202,25.7444038 9.09625659,25.418677 9.84450549,24.6225275 L24.1269231,10.3401099 C24.5592349,10.1581772 25.0581724,10.2483646 25.3994366,10.570128 C25.7407009,10.8918914 25.8600562,11.3846659 25.7038462,11.8269231 L13.8994505,23.6313187 C13.103301,24.3795676 12.7775742,25.5018722 13.0494324,26.5600893 C13.3212906,27.6183065 14.1476276,28.4446435 15.2058447,28.7165017 C16.2640619,28.9883599 17.3863665,28.662633 18.1346154,27.8664835 L23.9467033,22.0543956 C24.3972527,21.8741758 24.8928571,21.9642857 25.2532967,22.3247253 C25.5686813,22.6401099 25.6587912,23.0456044 25.5686813,23.406044 L24.6675824,24.3071429 C23.8714329,25.0553918 23.5457061,26.1776963 23.8175643,27.2359135 C24.0894225,28.2941307 24.9157594,29.1204676 25.9739766,29.3923258 C27.0321938,29.6641841 28.1544983,29.3384572 28.9027473,28.5423077 L36.1115385,21.3335165 C36.5620879,21.1532967 37.0576923,21.2434066 37.4181319,21.6038462 C37.6884615,21.8741758 37.8236264,22.2796703 37.7335165,22.6401099 L32.3269231,28.0917582 C31.5307736,28.8400071 31.2050467,29.9623117 31.4769049,31.0205289 C31.7487631,32.0787461 32.5751001,32.905083 33.6333173,33.1769412 C34.6915344,33.4487994 35.813839,33.1230726 36.5620879,32.3269231 L45.7082418,23.1807692 C46.8796703,22.0093407 46.8796703,20.117033 45.7082418,18.9456044 L45.7082418,18.9456044 Z M66.793956,22.9104396 C65.217033,22.0994505 63.8653846,21.4686813 63.8653846,20.0269231 C63.8653846,18.8554945 64.8115385,17.9994505 66.3884615,17.9994505 C67.4697802,17.9994505 68.5510989,18.3598901 69.271978,18.6302198 C69.6774725,18.7653846 70.0379121,18.7203297 70.1730769,18.2697802 L70.4884615,17.3686813 C70.6236264,16.9181319 70.5335165,16.6027473 70.1730769,16.4225275 C69.2269231,16.017033 68.1906593,15.6565934 66.4785714,15.6565934 C63.1445055,15.6565934 61.0269231,17.5038462 61.0269231,20.3873626 C61.0269231,23.1807692 63.2346154,24.2620879 65.2620879,25.2983516 C67.0192308,26.1994505 68.3258242,26.8302198 68.3258242,28.4071429 C68.3258242,29.8489011 67.5148352,30.6598901 65.7126374,30.6598901 C64.2708791,30.6598901 62.8741758,30.2543956 61.7478022,29.7137363 C61.3423077,29.5335165 60.9818681,29.6686813 60.8016484,30.1642857 L60.4862637,31.2456044 C60.3510989,31.6961538 60.4412088,32.0115385 60.8917582,32.1917582 C62.1532967,32.8225275 64.0906593,33.182967 65.6225275,33.182967 C69.0467033,33.182967 71.1642857,31.1554945 71.1642857,28.271978 C71.2543956,25.2082418 69.0917582,24.1269231 66.793956,22.9104396 L66.793956,22.9104396 Z M83.5543956,15.7016484 C81.7521978,15.7016484 80.2203297,16.4225275 78.6884615,18.1346154 L78.6884615,8.53791209 C78.6884615,8.08736264 78.328022,7.81703297 77.9225275,7.81703297 L76.6159341,7.81703297 C76.2104396,7.81703297 75.85,8.08736264 75.85,8.53791209 L75.85,32.371978 C75.85,32.7774725 76.2104396,33.0928571 76.6159341,33.0928571 L77.9225275,33.0928571 C78.328022,33.0928571 78.6884615,32.7774725 78.6884615,32.371978 L78.6884615,22.55 C78.6884615,20.071978 80.5807692,18.1346154 82.8785714,18.1346154 C84.4554945,18.1346154 85.1763736,18.9005495 85.1763736,20.7928571 L85.1763736,32.371978 C85.1763736,32.7774725 85.5368132,33.0928571 85.9423077,33.0928571 L87.2038462,33.0928571 C87.6093407,33.0928571 87.9697802,32.7774725 87.9697802,32.371978 L87.9697802,20.1620879 C87.9697802,17.4587912 86.2576923,15.7016484 83.5543956,15.7016484 L83.5543956,15.7016484 Z M99.639011,15.7016484 C95.493956,15.7016484 92.7906593,19.0357143 92.7906593,24.4873626 C92.7906593,29.9840659 95.493956,33.2730769 99.639011,33.2730769 C103.784066,33.2730769 106.487363,29.9840659 106.487363,24.4873626 C106.487363,18.9906593 103.739011,15.7016484 99.639011,15.7016484 Z M99.639011,30.8851648 C97.160989,30.8851648 95.7642857,28.8576923 95.7642857,24.4423077 C95.7642857,20.1620879 97.206044,18.0445055 99.639011,18.0445055 C102.117033,18.0445055 103.513736,20.1620879 103.513736,24.4423077 C103.513736,28.8576923 102.071978,30.8851648 99.639011,30.8851648 Z M118.246703,15.7016484 C116.264286,15.7016484 115.002747,16.5576923 114.056593,18.2247253 L113.696154,16.6027473 C113.606044,16.1071429 113.290659,15.8818681 112.75,15.8818681 L111.984066,15.8818681 C111.578571,15.8818681 111.218132,16.1972527 111.218132,16.6027473 L111.218132,39.4456044 C111.263187,40.1664835 111.848901,40.7521978 112.614835,40.7521978 C113.335714,40.7521978 113.966484,40.1664835 114.011538,39.4456044 L114.011538,30.9752747 C114.957692,32.5972527 116.309341,33.228022 118.291758,33.228022 C121.986264,33.228022 124.058791,30.2994505 124.058791,24.5324176 C124.103846,20.7478022 123.067582,15.7016484 118.246703,15.7016484 Z M117.660989,30.8851648 C115.182967,30.8851648 113.966484,28.8576923 113.966484,24.5774725 C113.966484,20.3423077 115.273077,18.0445055 117.615934,18.0445055 C120.76978,18.0445055 121.085165,22.2346154 121.085165,24.4873626 C121.085165,29.082967 119.913736,30.8851648 117.660989,30.8851648 Z M136.313736,15.5664835 C134.331319,15.5664835 133.15989,16.3774725 132.303846,17.7291209 L132.303846,8.53791209 C132.258791,7.5467033 131.447802,6.78076923 130.501648,6.78076923 C129.51044,6.78076923 128.699451,7.59175824 128.699451,8.58296703 L128.699451,32.1467033 C128.699451,32.5972527 129.104945,32.9576923 129.555495,32.9576923 L130.817033,32.9576923 C131.357692,32.9576923 131.763187,32.6873626 131.898352,32.1467033 L132.168681,30.8851648 C133.114835,32.3269231 134.286264,33.182967 136.403846,33.182967 C139.737912,33.182967 142.396154,31.0653846 142.396154,24.2620879 C142.306044,18.8554945 139.873077,15.5664835 136.313736,15.5664835 Z M135.367582,30.1192308 C133.385165,30.1192308 132.213736,28.4071429 132.213736,24.5324176 C132.213736,20.6126374 133.43022,18.6752747 135.367582,18.6752747 C137.935714,18.6752747 138.476374,21.693956 138.476374,24.4873626 C138.431319,28.6774725 137.304945,30.1192308 135.367582,30.1192308 Z M155.236813,15.8368132 C154.876374,15.7016484 154.425824,15.5664835 153.93022,15.5664835 C152.308242,15.5664835 151.046703,16.5126374 150.100549,18.0445055 L149.695055,16.6027473 C149.55989,16.1521978 149.199451,15.8368132 148.748901,15.8368132 L147.397253,15.8368132 C146.946703,15.8368132 146.541209,16.1972527 146.541209,16.6478022 L146.541209,32.1917582 C146.541209,32.6423077 146.946703,33.0027473 147.397253,33.0027473 L149.37967,33.0027473 C149.83022,33.0027473 150.190659,32.6423077 150.190659,32.1917582 L150.190659,23.8115385 C150.190659,20.4324176 151.317033,19.0807692 152.488462,19.0807692 C153.209341,19.0807692 153.84011,19.4862637 154.335714,19.6214286 C154.921429,19.7565934 155.281868,19.5313187 155.417033,18.9906593 L155.957692,17.0082418 C156.137912,16.5576923 155.912637,16.1071429 155.236813,15.8368132 Z M169.699451,31.1554945 C169.474176,30.1192308 169.519231,29.1730769 169.519231,28.317033 L169.519231,21.9642857 C169.519231,17.4137363 167.536813,15.5664835 163.211538,15.5664835 C161.048901,15.5664835 159.246703,16.1521978 158.751099,16.2873626 C158.255495,16.4225275 158.075275,16.7379121 158.165385,17.2335165 L158.525824,18.8104396 C158.615934,19.260989 159.021429,19.4862637 159.562088,19.3510989 C160.147802,19.1708791 161.409341,18.7653846 163.031319,18.7653846 C165.284066,18.7653846 165.86978,19.6214286 165.86978,21.4686813 L165.86978,22.2796703 L162.580769,22.4598901 C159.246703,22.6401099 156.723626,24.4423077 156.723626,28.0467033 C156.723626,31.3357143 158.525824,33.2730769 161.499451,33.2730769 C163.526923,33.2730769 165.193956,32.5071429 166.23022,30.9302198 L166.455495,32.2368132 C166.545604,32.7774725 166.860989,33.0478022 167.356593,33.0478022 L169.248901,33.0478022 C169.744505,33.0478022 170.014835,32.7324176 169.924725,32.2368132 L169.699451,31.1554945 Z M165.914835,27.3708791 C165.914835,28.6774725 164.518132,30.3445055 162.490659,30.3445055 C161.274176,30.3445055 160.508242,29.5785714 160.508242,27.8664835 C160.508242,25.6587912 161.95,24.982967 163.932418,24.8928571 L165.914835,24.8027473 L165.914835,27.3708791 Z M177.493956,15.8818681 L175.511538,15.8818681 C175.060989,15.8818681 174.655495,16.2423077 174.655495,16.6928571 L174.655495,32.2368132 C174.655495,32.6873626 175.060989,33.0478022 175.511538,33.0478022 L177.493956,33.0478022 C177.944505,33.0478022 178.304945,32.6873626 178.304945,32.2368132 L178.304945,16.6928571 C178.304945,16.2423077 177.944505,15.8818681 177.493956,15.8818681 Z M191.731319,15.5664835 C189.884066,15.5664835 188.397253,16.2873626 186.91044,17.9093407 L186.595055,16.5576923 C186.504945,16.1071429 186.234615,15.8368132 185.693956,15.8368132 L184.297253,15.8368132 C183.846703,15.8368132 183.441209,16.1972527 183.441209,16.6478022 L183.441209,32.1917582 C183.441209,32.6423077 183.846703,33.0027473 184.297253,33.0027473 L186.27967,33.0027473 C186.73022,33.0027473 187.135714,32.6423077 187.135714,32.1917582 L187.135714,22.6401099 C187.135714,20.3423077 188.622527,18.6302198 190.604945,18.6302198 C191.956593,18.6302198 192.452198,19.3510989 192.452198,20.7478022 L192.452198,32.1917582 C192.452198,32.6423077 192.857692,33.0027473 193.308242,33.0027473 L195.290659,33.0027473 C195.741209,33.0027473 196.146703,32.6423077 196.146703,32.1917582 L196.146703,19.9818681 C196.146703,17.3686813 194.434615,15.5664835 191.731319,15.5664835 L191.731319,15.5664835 Z" id="path6"></path>
                <circle id="circle8" cx="41.3379121" cy="37.1478022" r="2.65824176"></circle>
            </g>
        </g>
    </g>
</svg>