<svg xmlns="http://www.w3.org/2000/svg" id="Layer_1" width="434.35" height="89.45"><style id="style2">.st0{fill:#00abff}</style><circle class="st0" cx="390.85" cy="21.35" r="5.9" id="circle4" fill="#00abff"/><path d="M100.45 41.05a6.64 6.64 0 0 0-9.4 0l-1.2 1.2c-.8.1-1.7-.1-2.3-.7-.8-.8-1-1.9-.6-2.9l6.3-6.3a6.65 6.65 0 1 0-9.4-9.4l-20.9 20.9c-.8.2-1.8-.1-2.4-.7-.8-.8-1-1.9-.6-2.9l20.7-20.7a6.65 6.65 0 1 0-9.4-9.4l-7.6 7.6a2.63 2.63 0 0 1-3.3-3.5l2.9-2.9a6.65 6.65 0 1 0-9.4-9.4l-26.8 26.6c-.9.2-1.9 0-2.5-.7-.8-.8-1-1.9-.6-2.9l10.2-10.2a6.65 6.65 0 1 0-9.4-9.4l-22.8 22.9a6.65 6.65 0 1 0 9.4 9.4l4.8-4.8c1-.4 2.1-.2 2.8.6.7.7.9 1.7.7 2.6l-8.2 8.2a6.65 6.65 0 1 0 9.4 9.4l31.7-31.7a2.63 2.63 0 0 1 3.5 3.3l-26.2 26.2a6.65 6.65 0 1 0 9.4 9.4l12.9-12.9c1-.4 2.1-.2 2.9.6.7.7.9 1.6.7 2.4l-2 2a6.65 6.65 0 1 0 9.4 9.4l16-16c1-.4 2.1-.2 2.9.6.6.6.9 1.5.7 2.3l-12 12.1a6.65 6.65 0 1 0 9.4 9.4l20.3-20.3c2.6-2.6 2.6-6.8 0-9.4zm46.8 8.8c-3.5-1.8-6.5-3.2-6.5-6.4 0-2.6 2.1-4.5 5.6-4.5 2.4 0 4.8.8 6.4 1.4.9.3 1.7.2 2-.8l.7-2c.3-1 .1-1.7-.7-2.1-2.1-.9-4.4-1.7-8.2-1.7-7.4 0-12.1 4.1-12.1 10.5 0 6.2 4.9 8.6 9.4 10.9 3.9 2 6.8 3.4 6.8 6.9 0 3.2-1.8 5-5.8 5-3.2 0-6.3-.9-8.8-2.1-.9-.4-1.7-.1-2.1 1l-.7 2.4c-.3 1-.1 1.7.9 2.1 2.8 1.4 7.1 2.2 10.5 2.2 7.6 0 12.3-4.5 12.3-10.9.2-6.8-4.6-9.2-9.7-11.9zm37.2-16c-4 0-7.4 1.6-10.8 5.4v-21.3c0-1-.8-1.6-1.7-1.6h-2.9c-.9 0-1.7.6-1.7 1.6v52.9c0 .9.8 1.6 1.7 1.6h2.9c.9 0 1.7-.7 1.7-1.6v-21.8c0-5.5 4.2-9.8 9.3-9.8 3.5 0 5.1 1.7 5.1 5.9v25.7c0 .9.8 1.6 1.7 1.6h2.8c.9 0 1.7-.7 1.7-1.6v-27.1c0-6-3.8-9.9-9.8-9.9zm35.7 0c-9.2 0-15.2 7.4-15.2 19.5 0 12.2 6 19.5 15.2 19.5s15.2-7.3 15.2-19.5-6.1-19.5-15.2-19.5zm0 33.7c-5.5 0-8.6-4.5-8.6-14.3 0-9.5 3.2-14.2 8.6-14.2 5.5 0 8.6 4.7 8.6 14.2 0 9.8-3.2 14.3-8.6 14.3zm41.3-33.7c-4.4 0-7.2 1.9-9.3 5.6l-.8-3.6c-.2-1.1-.9-1.6-2.1-1.6h-1.7c-.9 0-1.7.7-1.7 1.6v50.7c.1 1.6 1.4 2.9 3.1 2.9 1.6 0 3-1.3 3.1-2.9v-18.8c2.1 3.6 5.1 5 9.5 5 8.2 0 12.8-6.5 12.8-19.3.1-8.4-2.2-19.6-12.9-19.6zm-1.3 33.7c-5.5 0-8.2-4.5-8.2-14 0-9.4 2.9-14.5 8.1-14.5 7 0 7.7 9.3 7.7 14.3 0 10.2-2.6 14.2-7.6 14.2zm41.4-34c-4.4 0-7 1.8-8.9 4.8v-20.4c-.1-2.2-1.9-3.9-4-3.9-2.2 0-4 1.8-4 4v52.3c0 1 .9 1.8 1.9 1.8h2.8c1.2 0 2.1-.6 2.4-1.8l.6-2.8c2.1 3.2 4.7 5.1 9.4 5.1 7.4 0 13.3-4.7 13.3-19.8-.2-12-5.6-19.3-13.5-19.3zm-2.1 32.3c-4.4 0-7-3.8-7-12.4 0-8.7 2.7-13 7-13 5.7 0 6.9 6.7 6.9 12.9-.1 9.3-2.6 12.5-6.9 12.5zm44.1-31.7c-.8-.3-1.8-.6-2.9-.6-3.6 0-6.4 2.1-8.5 5.5l-.9-3.2c-.3-1-1.1-1.7-2.1-1.7h-3c-1 0-1.9.8-1.9 1.8v34.5c0 1 .9 1.8 1.9 1.8h4.4c1 0 1.8-.8 1.8-1.8v-18.6c0-7.5 2.5-10.5 5.1-10.5 1.6 0 3 .9 4.1 1.2 1.3.3 2.1-.2 2.4-1.4l1.2-4.4c.4-1-.1-2-1.6-2.6zm32.1 34c-.5-2.3-.4-4.4-.4-6.3v-14.1c0-10.1-4.4-14.2-14-14.2-4.8 0-8.8 1.3-9.9 1.6-1.1.3-1.5 1-1.3 2.1l.8 3.5c.2 1 1.1 1.5 2.3 1.2 1.3-.4 4.1-1.3 7.7-1.3 5 0 6.3 1.9 6.3 6v1.8l-7.3.4c-7.4.4-13 4.4-13 12.4 0 7.3 4 11.6 10.6 11.6 4.5 0 8.2-1.7 10.5-5.2l.5 2.9c.2 1.2.9 1.8 2 1.8h4.2c1.1 0 1.7-.7 1.5-1.8zm-8.4-8.4c0 2.9-3.1 6.6-7.6 6.6-2.7 0-4.4-1.7-4.4-5.5 0-4.9 3.2-6.4 7.6-6.6l4.4-.2zm25.7-25.5h-4.4c-1 0-1.9.8-1.9 1.8v34.5c0 1 .9 1.8 1.9 1.8h4.4c1 0 1.8-.8 1.8-1.8v-34.5c0-1-.8-1.8-1.8-1.8zm31.6-.7c-4.1 0-7.4 1.6-10.7 5.2l-.7-3c-.2-1-.8-1.6-2-1.6h-3.1c-1 0-1.9.8-1.9 1.8v34.5c0 1 .9 1.8 1.9 1.8h4.4c1 0 1.9-.8 1.9-1.8v-21.2c0-5.1 3.3-8.9 7.7-8.9 3 0 4.1 1.6 4.1 4.7v25.4c0 1 .9 1.8 1.9 1.8h4.4c1 0 1.9-.8 1.9-1.8v-27.1c0-5.8-3.8-9.8-9.8-9.8z" id="path6" fill="#f7184d"/><circle class="st0" cx="90.75" cy="81.45" r="5.9" id="circle8" fill="#00abff"/></svg>