<svg width="365" height="291" viewBox="0 0 365 291" fill="none" xmlns="http://www.w3.org/2000/svg">
<g filter="url(#filter0_d)">
<rect x="97" y="20" width="260" height="261" rx="4" fill="white"/>
</g>
<mask id="mask0" mask-type="alpha" maskUnits="userSpaceOnUse" x="97" y="15" width="260" height="266">
<rect x="97" y="15" width="260" height="266" rx="4" fill="white"/>
</mask>
<g mask="url(#mask0)">
<path d="M97 245H357V281H97V245Z" fill="#0B24FB"/>
</g>
<g clip-path="url(#clip0)">
<path d="M165.879 269.413C165.879 269.636 165.813 269.853 165.69 270.038C165.566 270.223 165.39 270.367 165.185 270.452C164.979 270.537 164.753 270.559 164.535 270.516C164.317 270.472 164.117 270.365 163.96 270.208C163.802 270.05 163.695 269.85 163.652 269.631C163.609 269.413 163.632 269.187 163.717 268.982C163.802 268.776 163.947 268.601 164.132 268.477C164.317 268.354 164.535 268.289 164.757 268.289C165.055 268.289 165.34 268.408 165.551 268.619C165.761 268.83 165.879 269.115 165.879 269.413V269.413ZM166.59 261.789C166.354 261.554 166.035 261.422 165.702 261.422C165.369 261.422 165.05 261.554 164.814 261.789L164.587 262.017C164.509 262.03 164.429 262.023 164.354 261.999C164.278 261.974 164.21 261.932 164.154 261.876V261.876C164.084 261.806 164.036 261.718 164.016 261.621C163.997 261.525 164.006 261.425 164.043 261.333L165.229 260.145C165.464 259.909 165.596 259.59 165.596 259.258C165.596 258.925 165.464 258.606 165.229 258.371C165.113 258.254 164.974 258.161 164.822 258.098C164.67 258.035 164.506 258.002 164.341 258.002C164.176 258.002 164.013 258.035 163.861 258.098C163.708 258.161 163.57 258.254 163.453 258.371L159.519 262.303C159.438 262.32 159.353 262.317 159.273 262.293C159.192 262.269 159.119 262.226 159.06 262.167V262.167C158.991 262.097 158.943 262.008 158.923 261.911C158.904 261.815 158.912 261.714 158.949 261.623L162.849 257.715C163.084 257.479 163.215 257.16 163.215 256.828C163.215 256.495 163.084 256.176 162.849 255.941C162.613 255.705 162.294 255.573 161.961 255.573C161.628 255.573 161.308 255.705 161.073 255.941L159.646 257.371C159.558 257.397 159.464 257.398 159.376 257.374C159.287 257.351 159.206 257.304 159.142 257.239C159.071 257.168 159.024 257.078 159.004 256.98C158.985 256.882 158.995 256.781 159.034 256.689L159.574 256.147C159.691 256.03 159.784 255.892 159.847 255.74C159.91 255.587 159.942 255.424 159.942 255.259C159.942 255.095 159.91 254.931 159.847 254.779C159.784 254.627 159.691 254.489 159.574 254.372V254.372C159.34 254.136 159.021 254.002 158.688 254C158.355 253.998 158.035 254.129 157.798 254.363L152.727 259.432C152.642 259.454 152.553 259.453 152.469 259.43C152.384 259.406 152.307 259.362 152.245 259.3V259.3C152.176 259.231 152.128 259.143 152.109 259.047C152.089 258.951 152.097 258.851 152.134 258.76L154.068 256.823C154.185 256.707 154.278 256.568 154.341 256.416C154.404 256.264 154.437 256.101 154.437 255.936C154.437 255.771 154.404 255.608 154.341 255.456C154.278 255.303 154.185 255.165 154.068 255.049V255.049C153.833 254.813 153.513 254.681 153.18 254.681C152.847 254.681 152.528 254.813 152.292 255.049L147.994 259.359C147.877 259.475 147.784 259.614 147.721 259.766C147.658 259.919 147.625 260.082 147.625 260.247C147.625 260.412 147.658 260.575 147.721 260.728C147.784 260.88 147.877 261.018 147.994 261.135V261.135C148.229 261.37 148.548 261.502 148.881 261.502C149.213 261.502 149.532 261.37 149.768 261.135L150.667 260.236C150.758 260.201 150.857 260.193 150.953 260.214C151.048 260.234 151.135 260.282 151.204 260.351V260.351C151.266 260.413 151.311 260.49 151.335 260.575C151.358 260.66 151.358 260.749 151.336 260.835L149.787 262.386C149.67 262.502 149.578 262.641 149.514 262.793C149.451 262.945 149.419 263.108 149.419 263.273C149.419 263.438 149.451 263.601 149.514 263.753C149.578 263.906 149.67 264.044 149.787 264.16V264.16C149.903 264.277 150.041 264.37 150.194 264.433C150.346 264.496 150.509 264.528 150.674 264.528C150.839 264.528 151.002 264.496 151.154 264.433C151.306 264.37 151.445 264.277 151.561 264.16L157.547 258.166C157.639 258.13 157.739 258.122 157.836 258.142C157.933 258.162 158.021 258.21 158.091 258.28V258.28C158.157 258.346 158.203 258.429 158.225 258.519C158.247 258.61 158.243 258.705 158.214 258.794L153.26 263.754C153.025 263.989 152.893 264.309 152.893 264.641C152.893 264.974 153.025 265.293 153.26 265.528V265.528C153.376 265.645 153.515 265.738 153.667 265.801C153.819 265.864 153.983 265.897 154.148 265.897C154.313 265.897 154.476 265.864 154.628 265.801C154.781 265.738 154.919 265.645 155.036 265.528L157.471 263.093C157.563 263.058 157.663 263.05 157.759 263.07C157.854 263.091 157.942 263.139 158.012 263.208V263.208C158.071 263.267 158.115 263.341 158.138 263.421C158.162 263.502 158.165 263.587 158.148 263.669L157.77 264.047C157.653 264.163 157.56 264.302 157.497 264.454C157.434 264.607 157.401 264.77 157.401 264.935C157.401 265.1 157.434 265.263 157.497 265.416C157.56 265.568 157.653 265.706 157.77 265.823V265.823C158.005 266.058 158.324 266.19 158.657 266.19C158.99 266.19 159.309 266.058 159.544 265.823L162.577 262.8C162.659 262.768 162.749 262.759 162.837 262.773C162.924 262.787 163.006 262.824 163.075 262.88C163.144 262.935 163.197 263.009 163.228 263.091C163.26 263.174 163.269 263.264 163.255 263.351L160.988 265.63C160.753 265.866 160.621 266.185 160.621 266.517C160.621 266.85 160.753 267.169 160.988 267.405V267.405C161.104 267.521 161.243 267.614 161.395 267.677C161.547 267.74 161.711 267.773 161.876 267.773C162.041 267.773 162.204 267.74 162.356 267.677C162.509 267.614 162.647 267.521 162.764 267.405L166.597 263.571C166.715 263.454 166.807 263.314 166.87 263.161C166.933 263.008 166.966 262.844 166.965 262.678C166.964 262.512 166.931 262.349 166.866 262.196C166.802 262.043 166.708 261.905 166.59 261.789V261.789ZM249.184 267.886C250.015 267.886 250.67 267.711 251.149 267.359C251.378 267.2 251.564 266.986 251.69 266.737C251.816 266.488 251.877 266.212 251.869 265.933C251.878 265.715 251.844 265.498 251.768 265.294C251.692 265.09 251.576 264.903 251.427 264.744C251.131 264.44 250.662 264.216 250.019 264.069L248.914 263.826C248.683 263.781 248.466 263.684 248.279 263.542C248.216 263.486 248.166 263.417 248.134 263.339C248.101 263.261 248.086 263.177 248.09 263.093C248.087 262.979 248.114 262.867 248.168 262.768C248.222 262.668 248.301 262.585 248.398 262.526C248.661 262.371 248.964 262.297 249.269 262.314C249.998 262.33 250.702 262.582 251.274 263.034L251.748 261.942C251.411 261.671 251.026 261.464 250.614 261.332C250.18 261.191 249.726 261.122 249.269 261.127C248.789 261.117 248.312 261.205 247.867 261.384C247.493 261.532 247.167 261.778 246.922 262.097C246.699 262.401 246.582 262.769 246.588 263.145C246.588 264.097 247.179 264.7 248.362 264.956L249.441 265.201C249.707 265.25 249.96 265.353 250.185 265.502C250.257 265.557 250.314 265.629 250.352 265.71C250.39 265.792 250.408 265.882 250.405 265.972C250.406 266.082 250.378 266.191 250.322 266.286C250.267 266.381 250.186 266.459 250.089 266.511C249.814 266.653 249.506 266.718 249.197 266.7C248.342 266.711 247.506 266.44 246.82 265.929L246.371 267.063C247.072 267.612 248.01 267.886 249.184 267.886ZM256.742 261.127C256.312 261.121 255.887 261.22 255.504 261.417C255.141 261.604 254.834 261.886 254.618 262.233V258.327H253.023V267.775H254.618V264.109C254.608 263.883 254.642 263.657 254.719 263.444C254.796 263.231 254.915 263.035 255.068 262.868C255.221 262.711 255.405 262.589 255.608 262.508C255.812 262.427 256.03 262.39 256.249 262.399C256.418 262.386 256.587 262.411 256.745 262.472C256.903 262.533 257.045 262.629 257.161 262.752C257.358 262.989 257.456 263.367 257.456 263.886V267.782H259.062V263.799C259.06 262.018 258.284 261.127 256.734 261.127H256.742ZM263.491 267.886C264.091 267.899 264.683 267.757 265.212 267.474C265.704 267.206 266.105 266.797 266.363 266.299C266.643 265.744 266.782 265.128 266.767 264.506C266.782 263.885 266.643 263.269 266.363 262.715C266.105 262.217 265.704 261.808 265.212 261.539C264.683 261.257 264.091 261.115 263.491 261.127C262.882 261.113 262.279 261.255 261.739 261.539C261.245 261.807 260.842 262.216 260.583 262.715C260.303 263.269 260.164 263.885 260.179 264.506C260.164 265.128 260.303 265.744 260.583 266.299C260.842 266.798 261.245 267.207 261.739 267.474C262.276 267.758 262.877 267.9 263.483 267.886H263.491ZM263.478 266.626C263.243 266.641 263.008 266.6 262.791 266.507C262.575 266.415 262.383 266.273 262.231 266.093C261.944 265.738 261.8 265.209 261.8 264.506C261.8 263.813 261.947 263.283 262.238 262.921C262.396 262.749 262.587 262.611 262.801 262.517C263.014 262.423 263.245 262.375 263.478 262.375C263.711 262.375 263.942 262.423 264.155 262.517C264.368 262.611 264.56 262.749 264.717 262.921C265.008 263.283 265.154 263.812 265.154 264.506C265.154 265.2 265.01 265.729 264.723 266.093C264.57 266.274 264.378 266.416 264.16 266.509C263.942 266.601 263.706 266.641 263.47 266.626H263.478ZM271.616 261.127C271.148 261.118 270.686 261.235 270.28 261.468C269.905 261.682 269.611 262.014 269.445 262.412L269.316 261.294H267.805C267.877 261.904 267.911 262.518 267.907 263.132V270.558H269.501V266.743C269.695 267.1 269.99 267.393 270.348 267.584C270.736 267.79 271.169 267.894 271.608 267.886C272.136 267.901 272.655 267.758 273.101 267.477C273.548 267.195 273.9 266.787 274.114 266.305C274.363 265.753 274.486 265.152 274.473 264.546C274.485 263.932 274.36 263.324 274.106 262.766C273.887 262.277 273.535 261.859 273.091 261.558C272.652 261.269 272.135 261.119 271.608 261.127H271.616ZM271.179 266.626C270.943 266.639 270.707 266.596 270.491 266.501C270.274 266.407 270.083 266.262 269.932 266.08C269.634 265.715 269.486 265.196 269.486 264.519C269.486 263.843 269.632 263.308 269.923 262.94C270.074 262.754 270.268 262.606 270.488 262.51C270.708 262.414 270.947 262.371 271.187 262.386C271.423 262.373 271.659 262.418 271.874 262.517C272.089 262.616 272.276 262.765 272.421 262.953C272.712 263.331 272.857 263.86 272.857 264.54C272.857 265.22 272.71 265.738 272.417 266.093C272.265 266.273 272.073 266.414 271.857 266.507C271.641 266.599 271.406 266.64 271.172 266.626H271.179ZM279.351 261.127C278.913 261.119 278.48 261.223 278.093 261.43C277.73 261.619 277.431 261.912 277.233 262.271V258.327H275.64V267.775H277.233V266.717C277.419 267.083 277.713 267.383 278.074 267.578C278.504 267.797 278.982 267.901 279.464 267.88C279.945 267.86 280.414 267.715 280.823 267.461C281.268 267.165 281.62 266.749 281.84 266.261C282.091 265.702 282.216 265.094 282.204 264.481C282.217 263.875 282.095 263.273 281.845 262.72C281.627 262.241 281.277 261.833 280.836 261.545C280.39 261.263 279.871 261.118 279.344 261.127H279.351ZM278.928 266.626C278.69 266.641 278.451 266.599 278.232 266.504C278.013 266.41 277.82 266.264 277.668 266.08C277.378 265.717 277.233 265.193 277.233 264.506C277.233 263.819 277.379 263.297 277.67 262.94C277.828 262.766 278.02 262.628 278.235 262.533C278.449 262.439 278.681 262.39 278.916 262.39C279.15 262.39 279.382 262.439 279.597 262.533C279.811 262.628 280.004 262.766 280.162 262.94C280.453 263.304 280.6 263.82 280.6 264.489C280.6 265.158 280.453 265.693 280.162 266.069C280.015 266.255 279.826 266.403 279.61 266.501C279.394 266.598 279.157 266.641 278.92 266.626H278.928ZM286.864 261.146C286.442 261.14 286.027 261.256 285.67 261.481C285.313 261.708 285.042 262.047 284.899 262.444L284.77 261.299H283.259C283.331 261.91 283.365 262.524 283.361 263.138V267.782H284.955V264.275C284.932 263.817 285.086 263.366 285.384 263.017C285.671 262.7 286.089 262.541 286.637 262.541C286.928 262.541 287.216 262.598 287.485 262.707L287.499 261.243C287.292 261.17 287.075 261.136 286.856 261.141L286.864 261.146ZM292.91 261.299V262.276C292.715 261.919 292.42 261.627 292.062 261.435C291.675 261.229 291.242 261.125 290.803 261.133C290.273 261.122 289.752 261.27 289.307 261.558C288.86 261.857 288.506 262.275 288.285 262.766C288.032 263.324 287.907 263.932 287.918 264.546C287.905 265.152 288.029 265.753 288.279 266.305C288.496 266.785 288.849 267.191 289.294 267.474C289.747 267.755 290.272 267.898 290.805 267.886C291.243 267.894 291.676 267.79 292.063 267.584C292.422 267.392 292.717 267.1 292.912 266.743V267.782H294.491V261.294L292.91 261.299ZM291.234 266.626C290.998 266.64 290.762 266.599 290.545 266.507C290.328 266.414 290.135 266.273 289.981 266.093C289.684 265.733 289.536 265.219 289.537 264.551C289.539 263.884 289.687 263.355 289.981 262.964C290.127 262.777 290.316 262.628 290.532 262.529C290.748 262.431 290.984 262.385 291.221 262.397C291.458 262.384 291.694 262.428 291.911 262.524C292.128 262.62 292.319 262.766 292.468 262.951C292.759 263.319 292.904 263.845 292.904 264.531C292.904 265.216 292.759 265.734 292.468 266.086C292.319 266.267 292.13 266.41 291.916 266.504C291.701 266.598 291.468 266.64 291.234 266.626ZM295.984 267.782H297.577V261.294H295.984V267.782ZM302.807 261.127C302.356 261.12 301.911 261.231 301.516 261.449C301.135 261.662 300.821 261.978 300.61 262.361L300.494 261.294H298.983C299.056 261.904 299.091 262.518 299.087 263.132V267.782H300.679V264.109C300.669 263.883 300.703 263.657 300.78 263.444C300.858 263.231 300.976 263.035 301.129 262.868C301.283 262.711 301.467 262.589 301.671 262.508C301.875 262.427 302.093 262.39 302.312 262.399C302.48 262.386 302.65 262.412 302.807 262.473C302.965 262.534 303.107 262.629 303.223 262.752C303.42 262.989 303.519 263.367 303.519 263.886V267.782H305.125V263.799C305.13 262.018 304.358 261.127 302.807 261.127ZM296.844 258.255C296.622 258.257 296.405 258.325 296.222 258.449C296.038 258.574 295.896 258.75 295.812 258.956C295.728 259.161 295.707 259.387 295.752 259.605C295.796 259.822 295.904 260.022 296.062 260.178C296.219 260.334 296.42 260.44 296.637 260.483C296.855 260.526 297.081 260.503 297.286 260.417C297.491 260.332 297.666 260.188 297.789 260.003C297.912 259.819 297.977 259.602 297.978 259.38C297.975 259.081 297.854 258.795 297.642 258.584C297.43 258.373 297.143 258.255 296.844 258.255V258.255ZM173.037 267.762H174.694V263.945H177.006C177.983 263.945 178.747 263.705 179.3 263.227C179.576 262.984 179.793 262.682 179.937 262.344C180.08 262.006 180.146 261.64 180.13 261.273C180.13 260.45 179.855 259.802 179.306 259.327C178.757 258.852 177.99 258.614 177.006 258.612H173.039L173.037 267.762ZM174.694 262.66V259.897H176.814C177.398 259.897 177.834 260.016 178.125 260.251C178.273 260.378 178.39 260.537 178.465 260.717C178.541 260.897 178.574 261.092 178.561 261.286C178.573 261.479 178.539 261.672 178.462 261.85C178.385 262.027 178.267 262.184 178.117 262.307C177.823 262.543 177.388 262.661 176.814 262.66H174.694ZM183.952 267.864C184.552 267.876 185.144 267.735 185.673 267.454C186.167 267.187 186.57 266.779 186.83 266.282C187.111 265.727 187.25 265.111 187.236 264.489C187.251 263.866 187.111 263.248 186.83 262.692C186.572 262.195 186.172 261.785 185.681 261.517C185.152 261.235 184.559 261.094 183.96 261.107C183.354 261.093 182.754 261.235 182.218 261.517C181.723 261.784 181.32 262.193 181.059 262.692C180.779 263.247 180.64 263.863 180.655 264.485C180.64 265.108 180.778 265.726 181.059 266.282C181.319 266.78 181.722 267.19 182.216 267.457C182.753 267.739 183.353 267.878 183.96 267.864H183.952ZM183.939 266.605C183.705 266.62 183.471 266.579 183.256 266.486C183.04 266.394 182.85 266.252 182.699 266.072C182.412 265.717 182.269 265.188 182.269 264.485C182.269 263.782 182.414 263.253 182.705 262.898C182.856 262.716 183.047 262.571 183.264 262.477C183.48 262.382 183.716 262.339 183.952 262.352C184.186 262.34 184.419 262.383 184.633 262.478C184.847 262.572 185.036 262.716 185.184 262.898C185.476 263.262 185.622 263.791 185.622 264.485C185.622 265.179 185.479 265.708 185.192 266.072C185.04 266.252 184.848 266.394 184.632 266.486C184.416 266.579 184.181 266.619 183.946 266.605H183.939ZM196.906 261.273L195.244 265.885L193.56 261.273H192.396L190.715 265.848L189.052 261.273H187.406L189.951 267.762H191.364L192.931 263.508L194.537 267.762H195.937L198.482 261.273H196.906ZM204.683 264.357C204.683 263.349 204.424 262.555 203.907 261.974C203.387 261.396 202.684 261.107 201.792 261.107C201.22 261.097 200.656 261.246 200.162 261.536C199.682 261.822 199.294 262.239 199.043 262.737C198.77 263.284 198.633 263.888 198.645 264.498C198.645 265.544 198.949 266.363 199.557 266.955C200.166 267.547 201.001 267.847 202.063 267.854C202.528 267.855 202.99 267.779 203.431 267.629C203.841 267.5 204.225 267.298 204.564 267.032L204.111 265.936C203.548 266.383 202.851 266.628 202.133 266.632C201.517 266.632 201.052 266.465 200.738 266.137C200.424 265.808 200.253 265.294 200.219 264.6H204.689L204.683 264.357ZM201.843 262.263C202.028 262.253 202.213 262.282 202.386 262.347C202.56 262.412 202.718 262.512 202.851 262.641C203.121 262.948 203.278 263.338 203.295 263.746H200.271C200.317 263.332 200.5 262.945 200.791 262.647C201.078 262.386 201.456 262.248 201.843 262.263V262.263ZM209.35 261.118C208.928 261.112 208.513 261.228 208.156 261.452C207.801 261.68 207.53 262.019 207.385 262.416L207.257 261.282H205.745C205.819 261.892 205.854 262.505 205.849 263.119V267.762H207.442V264.255C207.42 263.795 207.574 263.344 207.873 262.994C208.16 262.678 208.578 262.52 209.125 262.52C209.416 262.52 209.705 262.576 209.974 262.686L209.985 261.222C209.78 261.149 209.564 261.114 209.347 261.118H209.35ZM216.438 264.357C216.438 263.349 216.179 262.555 215.661 261.974C215.143 261.393 214.439 261.104 213.547 261.107C212.974 261.098 212.41 261.246 211.916 261.536C211.437 261.822 211.049 262.239 210.798 262.737C210.525 263.284 210.388 263.888 210.399 264.498C210.399 265.544 210.703 266.363 211.312 266.955C211.92 267.547 212.755 267.847 213.817 267.854C214.282 267.855 214.744 267.779 215.185 267.629C215.596 267.5 215.98 267.298 216.319 267.032L215.856 265.927C215.293 266.374 214.596 266.618 213.877 266.622C213.261 266.622 212.797 266.456 212.483 266.127C212.169 265.798 211.997 265.284 211.963 264.591H216.434L216.438 264.357ZM213.583 262.263C213.768 262.253 213.953 262.282 214.126 262.347C214.3 262.412 214.458 262.512 214.592 262.641C214.861 262.948 215.017 263.338 215.034 263.746H212.011C212.056 263.332 212.24 262.944 212.532 262.647C212.818 262.386 213.196 262.248 213.583 262.263V262.263ZM222.223 258.304V262.21C222.029 261.862 221.737 261.579 221.382 261.396C220.999 261.198 220.574 261.099 220.143 261.107C219.614 261.093 219.092 261.237 218.644 261.519C218.196 261.801 217.841 262.209 217.624 262.692C217.375 263.244 217.252 263.845 217.265 264.451C217.253 265.064 217.378 265.672 217.63 266.231C217.851 266.724 218.208 267.144 218.66 267.44C219.104 267.726 219.623 267.873 220.15 267.864C220.589 267.872 221.022 267.768 221.409 267.563C221.765 267.37 222.058 267.077 222.25 266.721V267.762H223.829V258.314L222.223 258.304ZM220.566 266.605C220.329 266.616 220.093 266.571 219.878 266.472C219.662 266.374 219.473 266.225 219.327 266.038C219.032 265.661 218.883 265.135 218.883 264.457C218.883 263.779 219.032 263.274 219.327 262.909C219.478 262.726 219.67 262.581 219.888 262.487C220.105 262.392 220.342 262.349 220.579 262.363C220.814 262.351 221.048 262.395 221.263 262.491C221.477 262.587 221.666 262.732 221.813 262.915C222.104 263.284 222.25 263.807 222.25 264.483C222.25 265.16 222.102 265.683 221.806 266.052C221.657 266.235 221.468 266.381 221.252 266.477C221.037 266.573 220.802 266.617 220.566 266.605V266.605ZM232.799 261.107C232.36 261.099 231.926 261.202 231.538 261.407C231.18 261.6 230.885 261.892 230.69 262.25V258.304H229.097V267.762H230.679V266.696C230.864 267.062 231.158 267.362 231.519 267.556C231.912 267.766 232.353 267.872 232.799 267.864C233.324 267.873 233.84 267.726 234.282 267.44C234.727 267.144 235.078 266.727 235.296 266.239C235.55 265.68 235.676 265.072 235.665 264.459C235.677 263.853 235.555 263.252 235.306 262.7C235.088 262.22 234.738 261.812 234.297 261.524C233.849 261.241 233.328 261.096 232.799 261.107V261.107ZM232.373 266.605C232.135 266.62 231.897 266.578 231.679 266.483C231.46 266.388 231.267 266.243 231.115 266.059C230.824 265.695 230.679 265.171 230.679 264.485C230.679 263.799 230.824 263.285 231.115 262.917C231.273 262.744 231.466 262.606 231.68 262.511C231.895 262.417 232.127 262.368 232.361 262.368C232.596 262.368 232.827 262.417 233.042 262.511C233.256 262.606 233.449 262.744 233.607 262.917C233.898 263.282 234.044 263.798 234.044 264.464C234.044 265.143 233.898 265.668 233.607 266.046C233.462 266.231 233.273 266.379 233.059 266.476C232.844 266.574 232.609 266.618 232.373 266.605V266.605ZM241.21 261.273L239.31 265.936L237.447 261.273H235.763L238.461 267.531L238.255 268.005C238.098 268.377 237.843 268.7 237.517 268.937C237.096 269.193 236.633 269.37 236.149 269.459L236.508 270.691C237.211 270.601 237.884 270.351 238.474 269.959C239.006 269.591 239.443 269.004 239.784 268.198L242.807 261.273H241.21Z" fill="white"/>
</g>
<rect x="97" y="65" width="260" height="180" fill="#EFEFEF"/>
<path d="M97 19C97 16.7909 98.7909 15 101 15H353C355.209 15 357 16.7909 357 19V65H97V19Z" fill="white"/>
<path d="M115.088 46.144C114.213 46.144 113.392 46.0267 112.624 45.792C111.867 45.5573 111.221 45.2213 110.688 44.784L111.392 43.28C111.947 43.696 112.523 44.0053 113.12 44.208C113.728 44.4 114.389 44.496 115.104 44.496C115.893 44.496 116.501 44.3573 116.928 44.08C117.365 43.8027 117.584 43.4133 117.584 42.912C117.584 42.4853 117.381 42.16 116.976 41.936C116.581 41.7013 115.925 41.4827 115.008 41.28C113.579 40.9707 112.539 40.5707 111.888 40.08C111.237 39.5893 110.912 38.8747 110.912 37.936C110.912 37.264 111.093 36.6667 111.456 36.144C111.819 35.6213 112.331 35.2107 112.992 34.912C113.664 34.6133 114.437 34.464 115.312 34.464C116.112 34.464 116.869 34.5867 117.584 34.832C118.309 35.0667 118.901 35.3973 119.36 35.824L118.672 37.328C117.659 36.5173 116.539 36.112 115.312 36.112C114.576 36.112 113.995 36.2667 113.568 36.576C113.141 36.8747 112.928 37.2853 112.928 37.808C112.928 38.256 113.115 38.5973 113.488 38.832C113.872 39.0667 114.523 39.2853 115.44 39.488C116.389 39.712 117.163 39.9573 117.76 40.224C118.357 40.48 118.816 40.816 119.136 41.232C119.456 41.6373 119.616 42.1493 119.616 42.768C119.616 43.4507 119.435 44.048 119.072 44.56C118.709 45.0613 118.187 45.4507 117.504 45.728C116.821 46.0053 116.016 46.144 115.088 46.144ZM123.82 39.424V43.04C123.82 43.9893 124.262 44.464 125.148 44.464C125.393 44.464 125.66 44.4213 125.948 44.336V45.92C125.596 46.048 125.169 46.112 124.668 46.112C123.75 46.112 123.046 45.856 122.556 45.344C122.065 44.832 121.82 44.096 121.82 43.136V39.424H120.268V37.92H121.82V35.952L123.82 35.28V37.92H125.964V39.424H123.82ZM135.066 37.92V46H133.098V44.704C132.853 45.152 132.501 45.504 132.042 45.76C131.583 46.0053 131.061 46.128 130.474 46.128C129.77 46.128 129.146 45.9573 128.602 45.616C128.058 45.2747 127.637 44.7893 127.338 44.16C127.039 43.5307 126.89 42.8 126.89 41.968C126.89 41.136 127.039 40.4 127.338 39.76C127.647 39.1093 128.074 38.608 128.618 38.256C129.162 37.8933 129.781 37.712 130.474 37.712C131.061 37.712 131.583 37.84 132.042 38.096C132.501 38.3413 132.853 38.688 133.098 39.136V37.92H135.066ZM131.018 44.56C131.679 44.56 132.191 44.3307 132.554 43.872C132.917 43.4133 133.098 42.768 133.098 41.936C133.098 41.0827 132.917 40.4267 132.554 39.968C132.191 39.5093 131.674 39.28 131.002 39.28C130.341 39.28 129.823 39.52 129.45 40C129.087 40.4693 128.906 41.1253 128.906 41.968C128.906 42.8 129.087 43.44 129.45 43.888C129.823 44.336 130.346 44.56 131.018 44.56ZM141.596 37.728C141.906 37.728 142.172 37.7707 142.396 37.856L142.38 39.68C142.039 39.5413 141.687 39.472 141.324 39.472C140.642 39.472 140.119 39.6693 139.756 40.064C139.404 40.4587 139.228 40.9813 139.228 41.632V46H137.244V40.208C137.244 39.3547 137.202 38.592 137.116 37.92H138.988L139.148 39.344C139.351 38.8213 139.671 38.4213 140.108 38.144C140.546 37.8667 141.042 37.728 141.596 37.728ZM146.788 39.424V43.04C146.788 43.9893 147.231 44.464 148.116 44.464C148.362 44.464 148.628 44.4213 148.916 44.336V45.92C148.564 46.048 148.138 46.112 147.636 46.112C146.719 46.112 146.015 45.856 145.524 45.344C145.034 44.832 144.788 44.096 144.788 43.136V39.424H143.236V37.92H144.788V35.952L146.788 35.28V37.92H148.932V39.424H146.788ZM150.307 37.92H152.291V46H150.307V37.92ZM152.403 34.256V36.224H150.179V34.256H152.403ZM159.103 37.712C161.033 37.712 161.999 38.8213 161.999 41.04V46H159.999V41.136C159.999 40.496 159.876 40.032 159.631 39.744C159.385 39.4453 159.007 39.296 158.495 39.296C157.887 39.296 157.396 39.4933 157.023 39.888C156.649 40.272 156.463 40.784 156.463 41.424V46H154.479V40.208C154.479 39.3547 154.436 38.592 154.351 37.92H156.223L156.367 39.248C156.644 38.7573 157.017 38.3787 157.487 38.112C157.967 37.8453 158.505 37.712 159.103 37.712ZM171.927 37.92V45.744C171.927 47.0027 171.581 47.9573 170.887 48.608C170.194 49.2587 169.175 49.584 167.831 49.584C166.583 49.584 165.485 49.3227 164.535 48.8L164.855 47.28C165.837 47.792 166.813 48.048 167.783 48.048C169.223 48.048 169.943 47.3333 169.943 45.904V44.304C169.698 44.7413 169.341 45.0987 168.871 45.376C168.402 45.6427 167.874 45.776 167.287 45.776C166.583 45.776 165.954 45.6107 165.399 45.28C164.855 44.9387 164.429 44.464 164.119 43.856C163.821 43.2373 163.671 42.5333 163.671 41.744C163.671 40.9547 163.821 40.256 164.119 39.648C164.429 39.0293 164.855 38.5547 165.399 38.224C165.954 37.8827 166.583 37.712 167.287 37.712C167.885 37.712 168.413 37.84 168.871 38.096C169.341 38.3413 169.698 38.688 169.943 39.136V37.92H171.927ZM167.815 44.208C168.477 44.208 168.994 43.9893 169.367 43.552C169.751 43.1147 169.943 42.512 169.943 41.744C169.943 40.976 169.757 40.3733 169.383 39.936C169.01 39.4987 168.487 39.28 167.815 39.28C167.154 39.28 166.631 39.4987 166.247 39.936C165.874 40.3733 165.687 40.976 165.687 41.744C165.687 42.512 165.874 43.1147 166.247 43.552C166.631 43.9893 167.154 44.208 167.815 44.208ZM186.207 37.92V46H184.239V44.704C183.993 45.152 183.641 45.504 183.183 45.76C182.724 46.0053 182.201 46.128 181.615 46.128C180.911 46.128 180.287 45.9573 179.743 45.616C179.199 45.2747 178.777 44.7893 178.479 44.16C178.18 43.5307 178.031 42.8 178.031 41.968C178.031 41.136 178.18 40.4 178.479 39.76C178.788 39.1093 179.215 38.608 179.759 38.256C180.303 37.8933 180.921 37.712 181.615 37.712C182.201 37.712 182.724 37.84 183.183 38.096C183.641 38.3413 183.993 38.688 184.239 39.136V37.92H186.207ZM182.159 44.56C182.82 44.56 183.332 44.3307 183.695 43.872C184.057 43.4133 184.239 42.768 184.239 41.936C184.239 41.0827 184.057 40.4267 183.695 39.968C183.332 39.5093 182.815 39.28 182.143 39.28C181.481 39.28 180.964 39.52 180.591 40C180.228 40.4693 180.047 41.1253 180.047 41.968C180.047 42.8 180.228 43.44 180.591 43.888C180.964 44.336 181.487 44.56 182.159 44.56ZM190.929 39.424V43.04C190.929 43.9893 191.372 44.464 192.257 44.464C192.502 44.464 192.769 44.4213 193.057 44.336V45.92C192.705 46.048 192.278 46.112 191.777 46.112C190.86 46.112 190.156 45.856 189.665 45.344C189.174 44.832 188.929 44.096 188.929 43.136V39.424H187.377V37.92H188.929V35.952L190.929 35.28V37.92H193.073V39.424H190.929ZM206.854 42.784C206.854 43.648 206.55 44.3787 205.942 44.976C205.345 45.5627 204.539 45.9307 203.526 46.08V47.856H201.894V46.112C201.179 46.0587 200.513 45.92 199.894 45.696C199.286 45.472 198.753 45.168 198.294 44.784L198.998 43.28C199.926 44.0053 200.929 44.4053 202.006 44.48V41.152C201.291 40.9707 200.689 40.7733 200.198 40.56C199.707 40.336 199.297 40.0107 198.966 39.584C198.635 39.1467 198.47 38.5813 198.47 37.888C198.47 37.312 198.614 36.7893 198.902 36.32C199.19 35.84 199.59 35.4453 200.102 35.136C200.625 34.816 201.222 34.6133 201.894 34.528V32.752H203.526V34.512C204.145 34.5867 204.726 34.736 205.27 34.96C205.814 35.184 206.273 35.4667 206.646 35.808L205.942 37.312C205.163 36.672 204.321 36.288 203.414 36.16V39.632C204.129 39.8133 204.721 40.0107 205.19 40.224C205.659 40.4267 206.054 40.736 206.374 41.152C206.694 41.568 206.854 42.112 206.854 42.784ZM200.534 37.776C200.534 38.1493 200.662 38.4533 200.918 38.688C201.174 38.912 201.537 39.104 202.006 39.264V36.176C201.547 36.272 201.185 36.4587 200.918 36.736C200.662 37.0133 200.534 37.36 200.534 37.776ZM203.414 44.4C203.862 44.304 204.203 44.128 204.438 43.872C204.673 43.6053 204.79 43.264 204.79 42.848C204.79 42.5173 204.673 42.2507 204.438 42.048C204.203 41.8453 203.862 41.6747 203.414 41.536V44.4ZM216.128 44.32V46H208.48V44.48L212.352 40.304C212.81 39.8027 213.146 39.344 213.36 38.928C213.573 38.512 213.68 38.1013 213.68 37.696C213.68 37.1733 213.525 36.7787 213.216 36.512C212.917 36.2453 212.485 36.112 211.92 36.112C210.917 36.112 209.888 36.5067 208.832 37.296L208.144 35.792C208.592 35.3867 209.168 35.0667 209.872 34.832C210.576 34.5867 211.285 34.464 212 34.464C213.141 34.464 214.042 34.7467 214.704 35.312C215.376 35.8667 215.712 36.6187 215.712 37.568C215.712 38.2187 215.568 38.832 215.28 39.408C215.002 39.984 214.533 40.6293 213.872 41.344L211.072 44.32H216.128ZM220.073 43.76V45.232C220.073 45.7973 219.977 46.3093 219.785 46.768C219.593 47.2267 219.268 47.6853 218.809 48.144L217.993 47.488C218.494 46.9547 218.782 46.4587 218.857 46H217.833V43.76H220.073ZM230.185 43.776H228.569V46H226.553V43.776H221.593V42.24L226.921 34.608H228.569V42.16H230.185V43.776ZM226.553 42.16V37.824L223.545 42.16H226.553ZM234.995 34.464C236.435 34.464 237.544 34.9547 238.323 35.936C239.112 36.9067 239.507 38.2933 239.507 40.096C239.507 41.3547 239.32 42.4373 238.947 43.344C238.573 44.2507 238.035 44.944 237.331 45.424C236.637 45.904 235.811 46.144 234.851 46.144C234.168 46.144 233.501 46.032 232.851 45.808C232.211 45.5733 231.656 45.2427 231.187 44.816L231.875 43.312C232.888 44.1013 233.853 44.496 234.771 44.496C235.613 44.496 236.264 44.1387 236.723 43.424C237.192 42.6987 237.437 41.664 237.459 40.32C237.213 40.8107 236.84 41.2 236.339 41.488C235.848 41.776 235.288 41.92 234.659 41.92C233.987 41.92 233.384 41.7653 232.851 41.456C232.328 41.1467 231.917 40.7147 231.618 40.16C231.32 39.6053 231.171 38.9707 231.171 38.256C231.171 37.5307 231.331 36.88 231.651 36.304C231.981 35.728 232.435 35.28 233.011 34.96C233.597 34.6293 234.259 34.464 234.995 34.464ZM235.107 40.272C235.704 40.272 236.189 40.08 236.563 39.696C236.936 39.312 237.123 38.8107 237.123 38.192C237.123 37.5733 236.936 37.072 236.563 36.688C236.189 36.2933 235.704 36.096 235.107 36.096C234.509 36.096 234.029 36.288 233.667 36.672C233.315 37.056 233.139 37.5627 233.139 38.192C233.139 38.8213 233.315 39.328 233.667 39.712C234.029 40.0853 234.509 40.272 235.107 40.272ZM244.588 34.464C246.028 34.464 247.138 34.9547 247.916 35.936C248.706 36.9067 249.1 38.2933 249.1 40.096C249.1 41.3547 248.914 42.4373 248.54 43.344C248.167 44.2507 247.628 44.944 246.924 45.424C246.231 45.904 245.404 46.144 244.444 46.144C243.762 46.144 243.095 46.032 242.444 45.808C241.804 45.5733 241.25 45.2427 240.78 44.816L241.468 43.312C242.482 44.1013 243.447 44.496 244.364 44.496C245.207 44.496 245.858 44.1387 246.316 43.424C246.786 42.6987 247.031 41.664 247.052 40.32C246.807 40.8107 246.434 41.2 245.932 41.488C245.442 41.776 244.882 41.92 244.252 41.92C243.58 41.92 242.978 41.7653 242.444 41.456C241.922 41.1467 241.511 40.7147 241.212 40.16C240.914 39.6053 240.764 38.9707 240.764 38.256C240.764 37.5307 240.924 36.88 241.244 36.304C241.575 35.728 242.028 35.28 242.604 34.96C243.191 34.6293 243.852 34.464 244.588 34.464ZM244.7 40.272C245.298 40.272 245.783 40.08 246.156 39.696C246.53 39.312 246.716 38.8107 246.716 38.192C246.716 37.5733 246.53 37.072 246.156 36.688C245.783 36.2933 245.298 36.096 244.7 36.096C244.103 36.096 243.623 36.288 243.26 36.672C242.908 37.056 242.732 37.5627 242.732 38.192C242.732 38.8213 242.908 39.328 243.26 39.712C243.623 40.0853 244.103 40.272 244.7 40.272ZM252.87 43.76V46H250.63V43.76H252.87ZM258.198 34.464C259.638 34.464 260.747 34.9547 261.526 35.936C262.315 36.9067 262.71 38.2933 262.71 40.096C262.71 41.3547 262.523 42.4373 262.15 43.344C261.776 44.2507 261.238 44.944 260.534 45.424C259.84 45.904 259.014 46.144 258.054 46.144C257.371 46.144 256.704 46.032 256.054 45.808C255.414 45.5733 254.859 45.2427 254.39 44.816L255.078 43.312C256.091 44.1013 257.056 44.496 257.974 44.496C258.816 44.496 259.467 44.1387 259.926 43.424C260.395 42.6987 260.64 41.664 260.662 40.32C260.416 40.8107 260.043 41.2 259.542 41.488C259.051 41.776 258.491 41.92 257.862 41.92C257.19 41.92 256.587 41.7653 256.054 41.456C255.531 41.1467 255.12 40.7147 254.822 40.16C254.523 39.6053 254.374 38.9707 254.374 38.256C254.374 37.5307 254.534 36.88 254.854 36.304C255.184 35.728 255.638 35.28 256.214 34.96C256.8 34.6293 257.462 34.464 258.198 34.464ZM258.31 40.272C258.907 40.272 259.392 40.08 259.766 39.696C260.139 39.312 260.326 38.8107 260.326 38.192C260.326 37.5733 260.139 37.072 259.766 36.688C259.392 36.2933 258.907 36.096 258.31 36.096C257.712 36.096 257.232 36.288 256.87 36.672C256.518 37.056 256.342 37.5627 256.342 38.192C256.342 38.8213 256.518 39.328 256.87 39.712C257.232 40.0853 257.712 40.272 258.31 40.272ZM267.791 34.464C269.231 34.464 270.341 34.9547 271.119 35.936C271.909 36.9067 272.303 38.2933 272.303 40.096C272.303 41.3547 272.117 42.4373 271.743 43.344C271.37 44.2507 270.831 44.944 270.127 45.424C269.434 45.904 268.607 46.144 267.647 46.144C266.965 46.144 266.298 46.032 265.647 45.808C265.007 45.5733 264.453 45.2427 263.983 44.816L264.671 43.312C265.685 44.1013 266.65 44.496 267.567 44.496C268.41 44.496 269.061 44.1387 269.519 43.424C269.989 42.6987 270.234 41.664 270.255 40.32C270.01 40.8107 269.637 41.2 269.135 41.488C268.645 41.776 268.085 41.92 267.455 41.92C266.783 41.92 266.181 41.7653 265.647 41.456C265.125 41.1467 264.714 40.7147 264.415 40.16C264.117 39.6053 263.967 38.9707 263.967 38.256C263.967 37.5307 264.127 36.88 264.447 36.304C264.778 35.728 265.231 35.28 265.807 34.96C266.394 34.6293 267.055 34.464 267.791 34.464ZM267.903 40.272C268.501 40.272 268.986 40.08 269.359 39.696C269.733 39.312 269.919 38.8107 269.919 38.192C269.919 37.5733 269.733 37.072 269.359 36.688C268.986 36.2933 268.501 36.096 267.903 36.096C267.306 36.096 266.826 36.288 266.463 36.672C266.111 37.056 265.935 37.5627 265.935 38.192C265.935 38.8213 266.111 39.328 266.463 39.712C266.826 40.0853 267.306 40.272 267.903 40.272Z" fill="#121212"/>
<path d="M333 40.6666L334.175 41.8416L338 38.0249L341.825 41.8416L343 40.6666L338 35.6666L333 40.6666Z" fill="#121212"/>
<rect x="110" y="201" width="233" height="34" rx="4" fill="white"/>
<path d="M197.891 211.608L192.819 223H191.139L186.067 211.608H188.211L192.003 220.408L195.795 211.608H197.891ZM198.83 214.92H200.814V223H198.83V214.92ZM200.926 211.256V213.224H198.702V211.256H200.926ZM210.074 219.064H204.506C204.549 219.928 204.762 220.568 205.146 220.984C205.541 221.389 206.122 221.592 206.89 221.592C207.775 221.592 208.597 221.304 209.354 220.728L209.93 222.104C209.546 222.413 209.071 222.664 208.506 222.856C207.951 223.037 207.386 223.128 206.81 223.128C205.487 223.128 204.447 222.755 203.69 222.008C202.933 221.261 202.554 220.237 202.554 218.936C202.554 218.115 202.719 217.384 203.05 216.744C203.381 216.104 203.845 215.608 204.442 215.256C205.039 214.893 205.717 214.712 206.474 214.712C207.583 214.712 208.458 215.075 209.098 215.8C209.749 216.515 210.074 217.501 210.074 218.76V219.064ZM206.522 216.152C205.989 216.152 205.551 216.312 205.21 216.632C204.879 216.941 204.666 217.395 204.57 217.992H208.33C208.266 217.384 208.079 216.925 207.77 216.616C207.471 216.307 207.055 216.152 206.522 216.152ZM224.491 214.92L221.323 223H219.579L217.579 217.704L215.627 223H213.867L210.699 214.92H212.747L214.827 220.616L216.923 214.92H218.363L220.459 220.664L222.539 214.92H224.491ZM239.679 214.712C240.596 214.712 241.279 214.989 241.727 215.544C242.175 216.088 242.399 216.92 242.399 218.04V223H240.399V218.104C240.399 217.464 240.292 217.005 240.079 216.728C239.876 216.44 239.535 216.296 239.055 216.296C238.5 216.296 238.063 216.493 237.743 216.888C237.433 217.272 237.279 217.805 237.279 218.488V223H235.279V218.104C235.279 217.475 235.167 217.016 234.943 216.728C234.729 216.44 234.388 216.296 233.919 216.296C233.364 216.296 232.927 216.493 232.607 216.888C232.287 217.272 232.127 217.805 232.127 218.488V223H230.143V217.208C230.143 216.355 230.1 215.592 230.015 214.92H231.887L232.031 216.2C232.265 215.72 232.601 215.352 233.039 215.096C233.487 214.84 233.999 214.712 234.575 214.712C235.812 214.712 236.617 215.224 236.991 216.248C237.247 215.768 237.609 215.395 238.079 215.128C238.559 214.851 239.092 214.712 239.679 214.712ZM248.197 223.128C247.376 223.128 246.651 222.957 246.021 222.616C245.403 222.275 244.923 221.789 244.581 221.16C244.251 220.52 244.085 219.773 244.085 218.92C244.085 218.067 244.251 217.325 244.581 216.696C244.923 216.056 245.403 215.565 246.021 215.224C246.651 214.883 247.376 214.712 248.197 214.712C249.008 214.712 249.723 214.883 250.341 215.224C250.96 215.565 251.435 216.056 251.765 216.696C252.107 217.325 252.277 218.067 252.277 218.92C252.277 219.773 252.107 220.52 251.765 221.16C251.435 221.789 250.96 222.275 250.341 222.616C249.723 222.957 249.008 223.128 248.197 223.128ZM248.181 221.56C248.864 221.56 249.381 221.341 249.733 220.904C250.096 220.456 250.277 219.795 250.277 218.92C250.277 218.056 250.096 217.4 249.733 216.952C249.371 216.493 248.859 216.264 248.197 216.264C247.525 216.264 247.008 216.493 246.645 216.952C246.283 217.4 246.101 218.056 246.101 218.92C246.101 219.795 246.277 220.456 246.629 220.904C246.992 221.341 247.509 221.56 248.181 221.56ZM258.354 214.728C258.663 214.728 258.93 214.771 259.154 214.856L259.138 216.68C258.797 216.541 258.445 216.472 258.082 216.472C257.399 216.472 256.877 216.669 256.514 217.064C256.162 217.459 255.986 217.981 255.986 218.632V223H254.002V217.208C254.002 216.355 253.959 215.592 253.874 214.92H255.746L255.906 216.344C256.109 215.821 256.429 215.421 256.866 215.144C257.303 214.867 257.799 214.728 258.354 214.728ZM267.183 219.064H261.615C261.658 219.928 261.871 220.568 262.255 220.984C262.65 221.389 263.231 221.592 263.999 221.592C264.885 221.592 265.706 221.304 266.463 220.728L267.039 222.104C266.655 222.413 266.181 222.664 265.615 222.856C265.061 223.037 264.495 223.128 263.919 223.128C262.597 223.128 261.557 222.755 260.799 222.008C260.042 221.261 259.663 220.237 259.663 218.936C259.663 218.115 259.829 217.384 260.159 216.744C260.49 216.104 260.954 215.608 261.551 215.256C262.149 214.893 262.826 214.712 263.583 214.712C264.693 214.712 265.567 215.075 266.207 215.8C266.858 216.515 267.183 217.501 267.183 218.76V219.064ZM263.631 216.152C263.098 216.152 262.661 216.312 262.319 216.632C261.989 216.941 261.775 217.395 261.679 217.992H265.439C265.375 217.384 265.189 216.925 264.879 216.616C264.581 216.307 264.165 216.152 263.631 216.152Z" fill="#121212"/>
<rect x="110" y="159" width="233" height="36" rx="4" fill="white"/>
<path d="M129.272 183.128C128.184 183.128 127.245 182.893 126.456 182.424C125.667 181.955 125.059 181.283 124.632 180.408C124.205 179.533 123.992 178.493 123.992 177.288C123.992 176.083 124.205 175.048 124.632 174.184C125.059 173.32 125.667 172.653 126.456 172.184C127.245 171.715 128.184 171.48 129.272 171.48C130.051 171.48 130.771 171.603 131.432 171.848C132.093 172.083 132.664 172.44 133.144 172.92L132.648 173.928C132.104 173.459 131.565 173.123 131.032 172.92C130.499 172.717 129.917 172.616 129.288 172.616C128.04 172.616 127.069 173.021 126.376 173.832C125.693 174.643 125.352 175.795 125.352 177.288C125.352 178.792 125.693 179.955 126.376 180.776C127.059 181.587 128.029 181.992 129.288 181.992C129.917 181.992 130.499 181.891 131.032 181.688C131.565 181.485 132.104 181.149 132.648 180.68L133.144 181.688C132.664 182.168 132.093 182.531 131.432 182.776C130.771 183.011 130.051 183.128 129.272 183.128ZM138.357 183.112C137.589 183.112 136.917 182.941 136.341 182.6C135.776 182.259 135.333 181.779 135.013 181.16C134.704 180.531 134.549 179.789 134.549 178.936C134.549 178.093 134.704 177.357 135.013 176.728C135.333 176.099 135.776 175.613 136.341 175.272C136.917 174.931 137.589 174.76 138.357 174.76C139.125 174.76 139.792 174.931 140.357 175.272C140.933 175.613 141.376 176.099 141.685 176.728C142.005 177.357 142.165 178.093 142.165 178.936C142.165 179.789 142.005 180.531 141.685 181.16C141.376 181.779 140.933 182.259 140.357 182.6C139.792 182.941 139.125 183.112 138.357 183.112ZM138.357 182.04C139.147 182.04 139.755 181.779 140.181 181.256C140.619 180.723 140.837 179.949 140.837 178.936C140.837 177.944 140.619 177.181 140.181 176.648C139.744 176.115 139.136 175.848 138.357 175.848C137.579 175.848 136.965 176.115 136.517 176.648C136.08 177.181 135.861 177.944 135.861 178.936C135.861 179.949 136.075 180.723 136.501 181.256C136.939 181.779 137.557 182.04 138.357 182.04ZM146.906 183.112C145.551 183.112 144.479 182.765 143.69 182.072L144.122 181.112C144.548 181.443 144.986 181.688 145.434 181.848C145.892 181.997 146.399 182.072 146.954 182.072C147.562 182.072 148.02 181.971 148.33 181.768C148.65 181.555 148.81 181.251 148.81 180.856C148.81 180.536 148.703 180.285 148.49 180.104C148.276 179.912 147.924 179.757 147.434 179.64L146.074 179.32C145.402 179.171 144.879 178.904 144.506 178.52C144.143 178.136 143.962 177.677 143.962 177.144C143.962 176.675 144.09 176.264 144.346 175.912C144.602 175.549 144.959 175.267 145.418 175.064C145.876 174.861 146.42 174.76 147.049 174.76C147.615 174.76 148.148 174.851 148.65 175.032C149.151 175.213 149.572 175.475 149.914 175.816L149.482 176.76C149.098 176.44 148.703 176.205 148.298 176.056C147.903 175.896 147.487 175.816 147.049 175.816C146.474 175.816 146.026 175.928 145.706 176.152C145.396 176.376 145.242 176.68 145.242 177.064C145.242 177.395 145.338 177.656 145.53 177.848C145.732 178.04 146.052 178.189 146.49 178.296L147.85 178.632C148.607 178.792 149.162 179.059 149.514 179.432C149.876 179.795 150.058 180.259 150.058 180.824C150.058 181.517 149.775 182.072 149.21 182.488C148.644 182.904 147.876 183.112 146.906 183.112ZM150.909 175.976V174.952H156.077V175.976H150.909ZM156.045 181.848V182.952C155.864 183.005 155.682 183.043 155.501 183.064C155.33 183.096 155.138 183.112 154.925 183.112C154.178 183.112 153.581 182.899 153.133 182.472C152.696 182.045 152.477 181.405 152.477 180.552V172.888L153.773 172.424V180.376C153.773 180.803 153.832 181.133 153.949 181.368C154.077 181.603 154.248 181.768 154.461 181.864C154.674 181.949 154.914 181.992 155.181 181.992C155.341 181.992 155.485 181.981 155.613 181.96C155.741 181.939 155.885 181.901 156.045 181.848ZM161.015 183.112C160.225 183.112 159.543 182.941 158.967 182.6C158.391 182.259 157.943 181.779 157.623 181.16C157.313 180.541 157.159 179.811 157.159 178.968C157.159 178.136 157.319 177.405 157.639 176.776C157.959 176.136 158.412 175.64 158.999 175.288C159.585 174.936 160.279 174.76 161.079 174.76C161.623 174.76 162.145 174.856 162.647 175.048C163.159 175.229 163.58 175.485 163.911 175.816L163.479 176.776C163.084 176.467 162.695 176.237 162.311 176.088C161.937 175.928 161.548 175.848 161.143 175.848C160.332 175.848 159.687 176.12 159.207 176.664C158.737 177.208 158.503 177.976 158.503 178.968C158.503 179.949 158.737 180.707 159.207 181.24C159.676 181.773 160.321 182.04 161.143 182.04C161.537 182.04 161.927 181.965 162.311 181.816C162.695 181.656 163.084 181.421 163.479 181.112L163.911 182.072C163.569 182.392 163.137 182.648 162.615 182.84C162.103 183.021 161.569 183.112 161.015 183.112ZM168.889 183.112C168.121 183.112 167.449 182.941 166.873 182.6C166.307 182.259 165.865 181.779 165.545 181.16C165.235 180.531 165.081 179.789 165.081 178.936C165.081 178.093 165.235 177.357 165.545 176.728C165.865 176.099 166.307 175.613 166.873 175.272C167.449 174.931 168.121 174.76 168.889 174.76C169.657 174.76 170.323 174.931 170.889 175.272C171.465 175.613 171.907 176.099 172.217 176.728C172.537 177.357 172.697 178.093 172.697 178.936C172.697 179.789 172.537 180.531 172.217 181.16C171.907 181.779 171.465 182.259 170.889 182.6C170.323 182.941 169.657 183.112 168.889 183.112ZM168.889 182.04C169.678 182.04 170.286 181.779 170.713 181.256C171.15 180.723 171.369 179.949 171.369 178.936C171.369 177.944 171.15 177.181 170.713 176.648C170.275 176.115 169.667 175.848 168.889 175.848C168.11 175.848 167.497 176.115 167.049 176.648C166.611 177.181 166.393 177.944 166.393 178.936C166.393 179.949 166.606 180.723 167.033 181.256C167.47 181.779 168.089 182.04 168.889 182.04Z" fill="#121212"/>
<path d="M263.901 179.784C263.901 180.648 263.597 181.379 262.989 181.976C262.392 182.563 261.586 182.931 260.573 183.08V184.856H258.941V183.112C258.226 183.059 257.56 182.92 256.941 182.696C256.333 182.472 255.8 182.168 255.341 181.784L256.045 180.28C256.973 181.005 257.976 181.405 259.053 181.48V178.152C258.338 177.971 257.736 177.773 257.245 177.56C256.754 177.336 256.344 177.011 256.013 176.584C255.682 176.147 255.517 175.581 255.517 174.888C255.517 174.312 255.661 173.789 255.949 173.32C256.237 172.84 256.637 172.445 257.149 172.136C257.672 171.816 258.269 171.613 258.941 171.528V169.752H260.573V171.512C261.192 171.587 261.773 171.736 262.317 171.96C262.861 172.184 263.32 172.467 263.693 172.808L262.989 174.312C262.21 173.672 261.368 173.288 260.461 173.16V176.632C261.176 176.813 261.768 177.011 262.237 177.224C262.706 177.427 263.101 177.736 263.421 178.152C263.741 178.568 263.901 179.112 263.901 179.784ZM257.581 174.776C257.581 175.149 257.709 175.453 257.965 175.688C258.221 175.912 258.584 176.104 259.053 176.264V173.176C258.594 173.272 258.232 173.459 257.965 173.736C257.709 174.013 257.581 174.36 257.581 174.776ZM260.461 181.4C260.909 181.304 261.25 181.128 261.485 180.872C261.72 180.605 261.837 180.264 261.837 179.848C261.837 179.517 261.72 179.251 261.485 179.048C261.25 178.845 260.909 178.675 260.461 178.536V181.4ZM273.175 181.32V183H265.527V181.48L269.399 177.304C269.857 176.803 270.193 176.344 270.407 175.928C270.62 175.512 270.727 175.101 270.727 174.696C270.727 174.173 270.572 173.779 270.263 173.512C269.964 173.245 269.532 173.112 268.967 173.112C267.964 173.112 266.935 173.507 265.879 174.296L265.191 172.792C265.639 172.387 266.215 172.067 266.919 171.832C267.623 171.587 268.332 171.464 269.047 171.464C270.188 171.464 271.089 171.747 271.751 172.312C272.423 172.867 272.759 173.619 272.759 174.568C272.759 175.219 272.615 175.832 272.327 176.408C272.049 176.984 271.58 177.629 270.919 178.344L268.119 181.32H273.175ZM277.12 180.76V182.232C277.12 182.797 277.024 183.309 276.832 183.768C276.64 184.227 276.315 184.685 275.856 185.144L275.04 184.488C275.541 183.955 275.829 183.459 275.904 183H274.88V180.76H277.12ZM286.784 171.608V173.144L281.616 183H279.408L284.56 173.288H278.848V171.608H286.784ZM292.409 183.144C291.055 183.144 290.02 182.648 289.305 181.656C288.601 180.653 288.249 179.197 288.249 177.288C288.249 175.411 288.601 173.976 289.305 172.984C290.02 171.992 291.055 171.496 292.409 171.496C293.764 171.496 294.793 171.992 295.497 172.984C296.212 173.965 296.569 175.4 296.569 177.288C296.569 179.187 296.212 180.637 295.497 181.64C294.793 182.643 293.764 183.144 292.409 183.144ZM292.409 181.528C293.145 181.528 293.679 181.192 294.009 180.52C294.351 179.837 294.521 178.76 294.521 177.288C294.521 175.837 294.351 174.781 294.009 174.12C293.679 173.448 293.145 173.112 292.409 173.112C291.673 173.112 291.135 173.448 290.793 174.12C290.463 174.781 290.297 175.837 290.297 177.288C290.297 178.76 290.463 179.837 290.793 180.52C291.135 181.192 291.673 181.528 292.409 181.528ZM302.003 183.144C300.648 183.144 299.614 182.648 298.899 181.656C298.195 180.653 297.843 179.197 297.843 177.288C297.843 175.411 298.195 173.976 298.899 172.984C299.614 171.992 300.648 171.496 302.003 171.496C303.358 171.496 304.387 171.992 305.091 172.984C305.806 173.965 306.163 175.4 306.163 177.288C306.163 179.187 305.806 180.637 305.091 181.64C304.387 182.643 303.358 183.144 302.003 183.144ZM302.003 181.528C302.739 181.528 303.272 181.192 303.603 180.52C303.944 179.837 304.115 178.76 304.115 177.288C304.115 175.837 303.944 174.781 303.603 174.12C303.272 173.448 302.739 173.112 302.003 173.112C301.267 173.112 300.728 173.448 300.387 174.12C300.056 174.781 299.891 175.837 299.891 177.288C299.891 178.76 300.056 179.837 300.387 180.52C300.728 181.192 301.267 181.528 302.003 181.528ZM309.917 180.76V183H307.677V180.76H309.917ZM315.613 183.144C314.258 183.144 313.223 182.648 312.509 181.656C311.805 180.653 311.453 179.197 311.453 177.288C311.453 175.411 311.805 173.976 312.509 172.984C313.223 171.992 314.258 171.496 315.613 171.496C316.967 171.496 317.997 171.992 318.701 172.984C319.415 173.965 319.773 175.4 319.773 177.288C319.773 179.187 319.415 180.637 318.701 181.64C317.997 182.643 316.967 183.144 315.613 183.144ZM315.613 181.528C316.349 181.528 316.882 181.192 317.213 180.52C317.554 179.837 317.725 178.76 317.725 177.288C317.725 175.837 317.554 174.781 317.213 174.12C316.882 173.448 316.349 173.112 315.613 173.112C314.877 173.112 314.338 173.448 313.997 174.12C313.666 174.781 313.501 175.837 313.501 177.288C313.501 178.76 313.666 179.837 313.997 180.52C314.338 181.192 314.877 181.528 315.613 181.528ZM325.206 183.144C323.852 183.144 322.817 182.648 322.102 181.656C321.398 180.653 321.046 179.197 321.046 177.288C321.046 175.411 321.398 173.976 322.102 172.984C322.817 171.992 323.852 171.496 325.206 171.496C326.561 171.496 327.59 171.992 328.294 172.984C329.009 173.965 329.366 175.4 329.366 177.288C329.366 179.187 329.009 180.637 328.294 181.64C327.59 182.643 326.561 183.144 325.206 183.144ZM325.206 181.528C325.942 181.528 326.476 181.192 326.806 180.52C327.148 179.837 327.318 178.76 327.318 177.288C327.318 175.837 327.148 174.781 326.806 174.12C326.476 173.448 325.942 173.112 325.206 173.112C324.47 173.112 323.932 173.448 323.59 174.12C323.26 174.781 323.094 175.837 323.094 177.288C323.094 178.76 323.26 179.837 323.59 180.52C323.932 181.192 324.47 181.528 325.206 181.528Z" fill="#121212"/>
<rect x="110" y="117" width="233" height="36" rx="4" fill="white"/>
<path d="M127.528 141L123.528 129.608H124.872L128.36 139.88H127.848L131.416 129.608L132.424 129.624L135.928 139.88H135.432L138.952 129.608H140.248L136.264 141H135.144L131.72 131.176H132.072L128.632 141H127.528ZM144.227 141.112C143.512 141.112 142.883 140.947 142.339 140.616C141.805 140.275 141.389 139.795 141.091 139.176C140.803 138.547 140.659 137.811 140.659 136.968C140.659 136.125 140.808 135.389 141.107 134.76C141.405 134.131 141.821 133.64 142.355 133.288C142.899 132.936 143.523 132.76 144.227 132.76C144.963 132.76 145.587 132.941 146.099 133.304C146.611 133.667 146.957 134.184 147.139 134.856L146.947 134.984V132.952H148.227V141H146.947V138.92L147.139 139.016C146.957 139.688 146.611 140.205 146.099 140.568C145.587 140.931 144.963 141.112 144.227 141.112ZM144.483 140.04C145.272 140.04 145.88 139.773 146.307 139.24C146.733 138.696 146.947 137.928 146.947 136.936C146.947 135.944 146.728 135.181 146.291 134.648C145.864 134.115 145.261 133.848 144.483 133.848C143.693 133.848 143.075 134.125 142.627 134.68C142.189 135.224 141.971 135.987 141.971 136.968C141.971 137.949 142.189 138.707 142.627 139.24C143.075 139.773 143.693 140.04 144.483 140.04ZM150.732 141V129.224H152.028V141H150.732ZM154.545 141V135.208C154.545 134.835 154.534 134.461 154.513 134.088C154.502 133.704 154.47 133.325 154.417 132.952H155.649L155.793 134.616L155.633 134.728C155.825 134.099 156.156 133.613 156.625 133.272C157.105 132.931 157.67 132.76 158.321 132.76C159.1 132.76 159.702 132.952 160.129 133.336C160.566 133.72 160.844 134.307 160.961 135.096L160.577 134.888C160.748 134.237 161.089 133.72 161.601 133.336C162.124 132.952 162.748 132.76 163.473 132.76C164.358 132.76 165.025 133.027 165.473 133.56C165.921 134.083 166.145 134.877 166.145 135.944V141H164.849V136.008C164.849 135.261 164.716 134.717 164.449 134.376C164.182 134.024 163.761 133.848 163.185 133.848C162.513 133.848 161.98 134.077 161.585 134.536C161.201 134.995 161.009 135.619 161.009 136.408V141H159.713V136.008C159.713 135.261 159.574 134.717 159.297 134.376C159.03 134.024 158.609 133.848 158.033 133.848C157.35 133.848 156.812 134.077 156.417 134.536C156.033 134.995 155.841 135.619 155.841 136.408V141H154.545ZM171.695 141.112C170.981 141.112 170.351 140.947 169.807 140.616C169.274 140.275 168.858 139.795 168.559 139.176C168.271 138.547 168.127 137.811 168.127 136.968C168.127 136.125 168.277 135.389 168.575 134.76C168.874 134.131 169.29 133.64 169.823 133.288C170.367 132.936 170.991 132.76 171.695 132.76C172.431 132.76 173.055 132.941 173.567 133.304C174.079 133.667 174.426 134.184 174.607 134.856L174.415 134.984V132.952H175.695V141H174.415V138.92L174.607 139.016C174.426 139.688 174.079 140.205 173.567 140.568C173.055 140.931 172.431 141.112 171.695 141.112ZM171.951 140.04C172.741 140.04 173.349 139.773 173.775 139.24C174.202 138.696 174.415 137.928 174.415 136.936C174.415 135.944 174.197 135.181 173.759 134.648C173.333 134.115 172.73 133.848 171.951 133.848C171.162 133.848 170.543 134.125 170.095 134.68C169.658 135.224 169.439 135.987 169.439 136.968C169.439 137.949 169.658 138.707 170.095 139.24C170.543 139.773 171.162 140.04 171.951 140.04ZM178.201 141V135.208C178.201 134.835 178.19 134.461 178.169 134.088C178.158 133.704 178.126 133.325 178.073 132.952H179.305L179.481 134.936L179.305 134.888C179.454 134.184 179.774 133.656 180.265 133.304C180.766 132.941 181.326 132.76 181.945 132.76C182.084 132.76 182.212 132.771 182.329 132.792C182.457 132.803 182.574 132.824 182.681 132.856L182.649 134.04C182.404 133.955 182.121 133.912 181.801 133.912C181.246 133.912 180.798 134.035 180.457 134.28C180.126 134.525 179.881 134.84 179.721 135.224C179.572 135.597 179.497 135.992 179.497 136.408V141H178.201ZM183.503 133.976V132.952H188.671V133.976H183.503ZM188.639 139.848V140.952C188.457 141.005 188.276 141.043 188.095 141.064C187.924 141.096 187.732 141.112 187.519 141.112C186.772 141.112 186.175 140.899 185.727 140.472C185.289 140.045 185.071 139.405 185.071 138.552V130.888L186.367 130.424V138.376C186.367 138.803 186.425 139.133 186.543 139.368C186.671 139.603 186.841 139.768 187.055 139.864C187.268 139.949 187.508 139.992 187.775 139.992C187.935 139.992 188.079 139.981 188.207 139.96C188.335 139.939 188.479 139.901 188.639 139.848Z" fill="#121212"/>
<path d="M263.901 137.784C263.901 138.648 263.597 139.379 262.989 139.976C262.392 140.563 261.586 140.931 260.573 141.08V142.856H258.941V141.112C258.226 141.059 257.56 140.92 256.941 140.696C256.333 140.472 255.8 140.168 255.341 139.784L256.045 138.28C256.973 139.005 257.976 139.405 259.053 139.48V136.152C258.338 135.971 257.736 135.773 257.245 135.56C256.754 135.336 256.344 135.011 256.013 134.584C255.682 134.147 255.517 133.581 255.517 132.888C255.517 132.312 255.661 131.789 255.949 131.32C256.237 130.84 256.637 130.445 257.149 130.136C257.672 129.816 258.269 129.613 258.941 129.528V127.752H260.573V129.512C261.192 129.587 261.773 129.736 262.317 129.96C262.861 130.184 263.32 130.467 263.693 130.808L262.989 132.312C262.21 131.672 261.368 131.288 260.461 131.16V134.632C261.176 134.813 261.768 135.011 262.237 135.224C262.706 135.427 263.101 135.736 263.421 136.152C263.741 136.568 263.901 137.112 263.901 137.784ZM257.581 132.776C257.581 133.149 257.709 133.453 257.965 133.688C258.221 133.912 258.584 134.104 259.053 134.264V131.176C258.594 131.272 258.232 131.459 257.965 131.736C257.709 132.013 257.581 132.36 257.581 132.776ZM260.461 139.4C260.909 139.304 261.25 139.128 261.485 138.872C261.72 138.605 261.837 138.264 261.837 137.848C261.837 137.517 261.72 137.251 261.485 137.048C261.25 136.845 260.909 136.675 260.461 136.536V139.4ZM273.175 139.32V141H265.527V139.48L269.399 135.304C269.857 134.803 270.193 134.344 270.407 133.928C270.62 133.512 270.727 133.101 270.727 132.696C270.727 132.173 270.572 131.779 270.263 131.512C269.964 131.245 269.532 131.112 268.967 131.112C267.964 131.112 266.935 131.507 265.879 132.296L265.191 130.792C265.639 130.387 266.215 130.067 266.919 129.832C267.623 129.587 268.332 129.464 269.047 129.464C270.188 129.464 271.089 129.747 271.751 130.312C272.423 130.867 272.759 131.619 272.759 132.568C272.759 133.219 272.615 133.832 272.327 134.408C272.049 134.984 271.58 135.629 270.919 136.344L268.119 139.32H273.175ZM277.12 138.76V140.232C277.12 140.797 277.024 141.309 276.832 141.768C276.64 142.227 276.315 142.685 275.856 143.144L275.04 142.488C275.541 141.955 275.829 141.459 275.904 141H274.88V138.76H277.12ZM283.52 133.688C284.192 133.688 284.789 133.843 285.312 134.152C285.845 134.461 286.261 134.893 286.56 135.448C286.858 136.003 287.008 136.637 287.008 137.352C287.008 138.077 286.842 138.728 286.512 139.304C286.192 139.88 285.738 140.333 285.152 140.664C284.576 140.984 283.92 141.144 283.184 141.144C281.744 141.144 280.634 140.659 279.856 139.688C279.077 138.707 278.688 137.315 278.688 135.512C278.688 134.253 278.869 133.171 279.232 132.264C279.605 131.357 280.138 130.664 280.832 130.184C281.536 129.704 282.368 129.464 283.328 129.464C284.01 129.464 284.672 129.581 285.312 129.816C285.962 130.04 286.528 130.365 287.008 130.792L286.304 132.296C285.301 131.507 284.336 131.112 283.408 131.112C282.565 131.112 281.914 131.469 281.456 132.184C280.997 132.899 280.757 133.923 280.736 135.256C280.981 134.776 281.354 134.397 281.856 134.12C282.357 133.832 282.912 133.688 283.52 133.688ZM283.088 139.512C283.674 139.512 284.144 139.32 284.496 138.936C284.858 138.552 285.04 138.045 285.04 137.416C285.04 136.787 284.858 136.285 284.496 135.912C284.144 135.528 283.669 135.336 283.072 135.336C282.474 135.336 281.989 135.528 281.616 135.912C281.242 136.296 281.056 136.797 281.056 137.416C281.056 138.035 281.242 138.541 281.616 138.936C282 139.32 282.49 139.512 283.088 139.512ZM296.425 139.32V141H289.401V139.32H291.897V131.976L289.577 133.368V131.528L292.745 129.608H293.945V139.32H296.425ZM301.635 129.464C303.075 129.464 304.184 129.955 304.963 130.936C305.752 131.907 306.147 133.293 306.147 135.096C306.147 136.355 305.96 137.437 305.587 138.344C305.214 139.251 304.675 139.944 303.971 140.424C303.278 140.904 302.451 141.144 301.491 141.144C300.808 141.144 300.142 141.032 299.491 140.808C298.851 140.573 298.296 140.243 297.827 139.816L298.515 138.312C299.528 139.101 300.494 139.496 301.411 139.496C302.254 139.496 302.904 139.139 303.363 138.424C303.832 137.699 304.078 136.664 304.099 135.32C303.854 135.811 303.48 136.2 302.979 136.488C302.488 136.776 301.928 136.92 301.299 136.92C300.627 136.92 300.024 136.765 299.491 136.456C298.968 136.147 298.558 135.715 298.259 135.16C297.96 134.605 297.811 133.971 297.811 133.256C297.811 132.531 297.971 131.88 298.291 131.304C298.622 130.728 299.075 130.28 299.651 129.96C300.238 129.629 300.899 129.464 301.635 129.464ZM301.747 135.272C302.344 135.272 302.83 135.08 303.203 134.696C303.576 134.312 303.763 133.811 303.763 133.192C303.763 132.573 303.576 132.072 303.203 131.688C302.83 131.293 302.344 131.096 301.747 131.096C301.15 131.096 300.67 131.288 300.307 131.672C299.955 132.056 299.779 132.563 299.779 133.192C299.779 133.821 299.955 134.328 300.307 134.712C300.67 135.085 301.15 135.272 301.747 135.272ZM309.917 138.76V141H307.677V138.76H309.917ZM315.245 129.464C316.685 129.464 317.794 129.955 318.573 130.936C319.362 131.907 319.757 133.293 319.757 135.096C319.757 136.355 319.57 137.437 319.197 138.344C318.823 139.251 318.285 139.944 317.581 140.424C316.887 140.904 316.061 141.144 315.101 141.144C314.418 141.144 313.751 141.032 313.101 140.808C312.461 140.573 311.906 140.243 311.437 139.816L312.125 138.312C313.138 139.101 314.103 139.496 315.021 139.496C315.863 139.496 316.514 139.139 316.973 138.424C317.442 137.699 317.687 136.664 317.709 135.32C317.463 135.811 317.09 136.2 316.589 136.488C316.098 136.776 315.538 136.92 314.909 136.92C314.237 136.92 313.634 136.765 313.101 136.456C312.578 136.147 312.167 135.715 311.868 135.16C311.57 134.605 311.421 133.971 311.421 133.256C311.421 132.531 311.581 131.88 311.901 131.304C312.231 130.728 312.685 130.28 313.261 129.96C313.847 129.629 314.509 129.464 315.245 129.464ZM315.357 135.272C315.954 135.272 316.439 135.08 316.813 134.696C317.186 134.312 317.373 133.811 317.373 133.192C317.373 132.573 317.186 132.072 316.813 131.688C316.439 131.293 315.954 131.096 315.357 131.096C314.759 131.096 314.279 131.288 313.917 131.672C313.565 132.056 313.389 132.563 313.389 133.192C313.389 133.821 313.565 134.328 313.917 134.712C314.279 135.085 314.759 135.272 315.357 135.272ZM327.126 135.144C327.862 135.325 328.438 135.661 328.854 136.152C329.27 136.643 329.478 137.235 329.478 137.928C329.478 138.579 329.297 139.149 328.934 139.64C328.582 140.12 328.081 140.488 327.43 140.744C326.79 141 326.049 141.128 325.206 141.128C324.364 141.128 323.617 141 322.966 140.744C322.326 140.488 321.825 140.12 321.462 139.64C321.11 139.149 320.934 138.579 320.934 137.928C320.934 137.235 321.142 136.643 321.558 136.152C321.974 135.661 322.55 135.325 323.286 135.144C322.646 134.931 322.14 134.595 321.766 134.136C321.404 133.677 321.222 133.144 321.222 132.536C321.222 131.917 321.393 131.379 321.734 130.92C322.076 130.451 322.545 130.093 323.142 129.848C323.75 129.592 324.438 129.464 325.206 129.464C325.974 129.464 326.657 129.592 327.254 129.848C327.862 130.093 328.337 130.451 328.678 130.92C329.02 131.379 329.19 131.917 329.19 132.536C329.19 133.155 329.004 133.699 328.63 134.168C328.268 134.627 327.766 134.952 327.126 135.144ZM325.206 131.08C324.577 131.08 324.081 131.224 323.718 131.512C323.356 131.8 323.174 132.211 323.174 132.744C323.174 133.245 323.356 133.656 323.718 133.976C324.092 134.285 324.588 134.488 325.206 134.584C325.825 134.488 326.316 134.285 326.678 133.976C327.052 133.656 327.238 133.245 327.238 132.744C327.238 132.211 327.057 131.8 326.694 131.512C326.332 131.224 325.836 131.08 325.206 131.08ZM325.206 139.512C325.932 139.512 326.497 139.363 326.902 139.064C327.318 138.765 327.526 138.339 327.526 137.784C327.526 137.261 327.313 136.84 326.886 136.52C326.47 136.2 325.91 135.992 325.206 135.896C324.502 135.992 323.937 136.2 323.51 136.52C323.094 136.84 322.886 137.261 322.886 137.784C322.886 138.339 323.089 138.765 323.494 139.064C323.91 139.363 324.481 139.512 325.206 139.512Z" fill="#121212"/>
<g filter="url(#filter1_d)">
<rect x="50" y="75" width="233" height="36" rx="4" fill="white"/>
<path d="M64.408 99V87.608H65.72V97.88H71.432V99H64.408ZM76.2791 99.112C75.5111 99.112 74.8391 98.9413 74.2631 98.6C73.6978 98.2587 73.2551 97.7787 72.9351 97.16C72.6258 96.5307 72.4711 95.7893 72.4711 94.936C72.4711 94.0933 72.6258 93.3573 72.9351 92.728C73.2551 92.0987 73.6978 91.6133 74.2631 91.272C74.8391 90.9307 75.5111 90.76 76.2791 90.76C77.0471 90.76 77.7138 90.9307 78.2791 91.272C78.8551 91.6133 79.2978 92.0987 79.6071 92.728C79.9271 93.3573 80.0871 94.0933 80.0871 94.936C80.0871 95.7893 79.9271 96.5307 79.6071 97.16C79.2978 97.7787 78.8551 98.2587 78.2791 98.6C77.7138 98.9413 77.0471 99.112 76.2791 99.112ZM76.2791 98.04C77.0685 98.04 77.6765 97.7787 78.1031 97.256C78.5405 96.7227 78.7591 95.9493 78.7591 94.936C78.7591 93.944 78.5405 93.1813 78.1031 92.648C77.6658 92.1147 77.0578 91.848 76.2791 91.848C75.5005 91.848 74.8871 92.1147 74.4391 92.648C74.0018 93.1813 73.7831 93.944 73.7831 94.936C73.7831 95.9493 73.9965 96.7227 74.4231 97.256C74.8605 97.7787 75.4791 98.04 76.2791 98.04ZM84.1736 99L81.1976 90.952H82.5576L85.0376 98.04H84.6216L87.1816 90.952H88.3176L90.8456 98.04H90.4296L92.9576 90.952H94.2376L91.2616 99H90.0136L87.3576 91.752H88.0616L85.4216 99H84.1736ZM102.418 98.04C102.066 98.3707 101.613 98.632 101.058 98.824C100.514 99.016 99.9541 99.112 99.3781 99.112C98.5461 99.112 97.8261 98.9467 97.2181 98.616C96.6208 98.2853 96.1568 97.8107 95.8261 97.192C95.5061 96.5627 95.3461 95.816 95.3461 94.952C95.3461 94.12 95.5061 93.3893 95.8261 92.76C96.1461 92.1307 96.5888 91.64 97.1541 91.288C97.7301 90.936 98.3915 90.76 99.1381 90.76C99.8528 90.76 100.466 90.92 100.978 91.24C101.49 91.5493 101.879 91.9973 102.146 92.584C102.423 93.1707 102.562 93.8747 102.562 94.696V94.936H96.4821V94.088H101.826L101.41 94.68C101.431 93.7413 101.245 93.0213 100.85 92.52C100.466 92.0187 99.9008 91.768 99.1541 91.768C98.3755 91.768 97.7621 92.0453 97.3141 92.6C96.8768 93.144 96.6581 93.9013 96.6581 94.872C96.6581 95.9173 96.8875 96.7067 97.3461 97.24C97.8155 97.7733 98.4981 98.04 99.3941 98.04C99.8635 98.04 100.311 97.9653 100.738 97.816C101.175 97.656 101.591 97.416 101.986 97.096L102.418 98.04ZM104.509 91.112L103.901 90.632C104.189 90.3227 104.381 90.04 104.477 89.784C104.573 89.528 104.621 89.2667 104.621 89L105.005 89.256H103.837V87.608H105.485V88.776C105.485 89.2133 105.41 89.6187 105.261 89.992C105.122 90.3653 104.871 90.7387 104.509 91.112ZM110.015 99.112C108.66 99.112 107.588 98.7653 106.799 98.072L107.231 97.112C107.658 97.4427 108.095 97.688 108.543 97.848C109.002 97.9973 109.508 98.072 110.063 98.072C110.671 98.072 111.13 97.9707 111.439 97.768C111.759 97.5547 111.919 97.2507 111.919 96.856C111.919 96.536 111.812 96.2853 111.599 96.104C111.386 95.912 111.034 95.7573 110.543 95.64L109.183 95.32C108.511 95.1707 107.988 94.904 107.615 94.52C107.252 94.136 107.071 93.6773 107.071 93.144C107.071 92.6747 107.199 92.264 107.455 91.912C107.711 91.5493 108.068 91.2667 108.527 91.064C108.986 90.8613 109.53 90.76 110.159 90.76C110.724 90.76 111.258 90.8507 111.759 91.032C112.26 91.2133 112.682 91.4747 113.023 91.816L112.591 92.76C112.207 92.44 111.812 92.2053 111.407 92.056C111.012 91.896 110.596 91.816 110.159 91.816C109.583 91.816 109.135 91.928 108.815 92.152C108.506 92.376 108.351 92.68 108.351 93.064C108.351 93.3947 108.447 93.656 108.639 93.848C108.842 94.04 109.162 94.1893 109.599 94.296L110.959 94.632C111.716 94.792 112.271 95.0587 112.623 95.432C112.986 95.7947 113.167 96.2587 113.167 96.824C113.167 97.5173 112.884 98.072 112.319 98.488C111.754 98.904 110.986 99.112 110.015 99.112Z" fill="#121212"/>
<path d="M203.901 95.784C203.901 96.648 203.597 97.3787 202.989 97.976C202.392 98.5627 201.586 98.9307 200.573 99.08V100.856H198.941V99.112C198.226 99.0587 197.56 98.92 196.941 98.696C196.333 98.472 195.8 98.168 195.341 97.784L196.045 96.28C196.973 97.0053 197.976 97.4053 199.053 97.48V94.152C198.338 93.9707 197.736 93.7733 197.245 93.56C196.754 93.336 196.344 93.0107 196.013 92.584C195.682 92.1467 195.517 91.5813 195.517 90.888C195.517 90.312 195.661 89.7893 195.949 89.32C196.237 88.84 196.637 88.4453 197.149 88.136C197.672 87.816 198.269 87.6133 198.941 87.528V85.752H200.573V87.512C201.192 87.5867 201.773 87.736 202.317 87.96C202.861 88.184 203.32 88.4667 203.693 88.808L202.989 90.312C202.21 89.672 201.368 89.288 200.461 89.16V92.632C201.176 92.8133 201.768 93.0107 202.237 93.224C202.706 93.4267 203.101 93.736 203.421 94.152C203.741 94.568 203.901 95.112 203.901 95.784ZM197.581 90.776C197.581 91.1493 197.709 91.4533 197.965 91.688C198.221 91.912 198.584 92.104 199.053 92.264V89.176C198.594 89.272 198.232 89.4587 197.965 89.736C197.709 90.0133 197.581 90.36 197.581 90.776ZM200.461 97.4C200.909 97.304 201.25 97.128 201.485 96.872C201.72 96.6053 201.837 96.264 201.837 95.848C201.837 95.5173 201.72 95.2507 201.485 95.048C201.25 94.8453 200.909 94.6747 200.461 94.536V97.4ZM213.175 97.32V99H205.527V97.48L209.399 93.304C209.857 92.8027 210.193 92.344 210.407 91.928C210.62 91.512 210.727 91.1013 210.727 90.696C210.727 90.1733 210.572 89.7787 210.263 89.512C209.964 89.2453 209.532 89.112 208.967 89.112C207.964 89.112 206.935 89.5067 205.879 90.296L205.191 88.792C205.639 88.3867 206.215 88.0667 206.919 87.832C207.623 87.5867 208.332 87.464 209.047 87.464C210.188 87.464 211.089 87.7467 211.751 88.312C212.423 88.8667 212.759 89.6187 212.759 90.568C212.759 91.2187 212.615 91.832 212.327 92.408C212.049 92.984 211.58 93.6293 210.919 94.344L208.119 97.32H213.175ZM217.12 96.76V98.232C217.12 98.7973 217.024 99.3093 216.832 99.768C216.64 100.227 216.315 100.685 215.856 101.144L215.04 100.488C215.541 99.9547 215.829 99.4587 215.904 99H214.88V96.76H217.12ZM227.232 96.776H225.616V99H223.6V96.776H218.64V95.24L223.968 87.608H225.616V95.16H227.232V96.776ZM223.6 95.16V90.824L220.592 95.16H223.6ZM232.041 87.464C233.481 87.464 234.591 87.9547 235.369 88.936C236.159 89.9067 236.553 91.2933 236.553 93.096C236.553 94.3547 236.367 95.4373 235.993 96.344C235.62 97.2507 235.081 97.944 234.377 98.424C233.684 98.904 232.857 99.144 231.897 99.144C231.215 99.144 230.548 99.032 229.897 98.808C229.257 98.5733 228.703 98.2427 228.233 97.816L228.921 96.312C229.935 97.1013 230.9 97.496 231.817 97.496C232.66 97.496 233.311 97.1387 233.769 96.424C234.239 95.6987 234.484 94.664 234.505 93.32C234.26 93.8107 233.887 94.2 233.385 94.488C232.895 94.776 232.335 94.92 231.705 94.92C231.033 94.92 230.431 94.7653 229.897 94.456C229.375 94.1467 228.964 93.7147 228.665 93.16C228.367 92.6053 228.217 91.9707 228.217 91.256C228.217 90.5307 228.377 89.88 228.697 89.304C229.028 88.728 229.481 88.28 230.057 87.96C230.644 87.6293 231.305 87.464 232.041 87.464ZM232.153 93.272C232.751 93.272 233.236 93.08 233.609 92.696C233.983 92.312 234.169 91.8107 234.169 91.192C234.169 90.5733 233.983 90.072 233.609 89.688C233.236 89.2933 232.751 89.096 232.153 89.096C231.556 89.096 231.076 89.288 230.713 89.672C230.361 90.056 230.185 90.5627 230.185 91.192C230.185 91.8213 230.361 92.328 230.713 92.712C231.076 93.0853 231.556 93.272 232.153 93.272ZM241.635 87.464C243.075 87.464 244.184 87.9547 244.963 88.936C245.752 89.9067 246.147 91.2933 246.147 93.096C246.147 94.3547 245.96 95.4373 245.587 96.344C245.214 97.2507 244.675 97.944 243.971 98.424C243.278 98.904 242.451 99.144 241.491 99.144C240.808 99.144 240.142 99.032 239.491 98.808C238.851 98.5733 238.296 98.2427 237.827 97.816L238.515 96.312C239.528 97.1013 240.494 97.496 241.411 97.496C242.254 97.496 242.904 97.1387 243.363 96.424C243.832 95.6987 244.078 94.664 244.099 93.32C243.854 93.8107 243.48 94.2 242.979 94.488C242.488 94.776 241.928 94.92 241.299 94.92C240.627 94.92 240.024 94.7653 239.491 94.456C238.968 94.1467 238.558 93.7147 238.259 93.16C237.96 92.6053 237.811 91.9707 237.811 91.256C237.811 90.5307 237.971 89.88 238.291 89.304C238.622 88.728 239.075 88.28 239.651 87.96C240.238 87.6293 240.899 87.464 241.635 87.464ZM241.747 93.272C242.344 93.272 242.83 93.08 243.203 92.696C243.576 92.312 243.763 91.8107 243.763 91.192C243.763 90.5733 243.576 90.072 243.203 89.688C242.83 89.2933 242.344 89.096 241.747 89.096C241.15 89.096 240.67 89.288 240.307 89.672C239.955 90.056 239.779 90.5627 239.779 91.192C239.779 91.8213 239.955 92.328 240.307 92.712C240.67 93.0853 241.15 93.272 241.747 93.272ZM249.917 96.76V99H247.677V96.76H249.917ZM255.245 87.464C256.685 87.464 257.794 87.9547 258.573 88.936C259.362 89.9067 259.757 91.2933 259.757 93.096C259.757 94.3547 259.57 95.4373 259.197 96.344C258.823 97.2507 258.285 97.944 257.581 98.424C256.887 98.904 256.061 99.144 255.101 99.144C254.418 99.144 253.751 99.032 253.101 98.808C252.461 98.5733 251.906 98.2427 251.437 97.816L252.125 96.312C253.138 97.1013 254.103 97.496 255.021 97.496C255.863 97.496 256.514 97.1387 256.973 96.424C257.442 95.6987 257.687 94.664 257.709 93.32C257.463 93.8107 257.09 94.2 256.589 94.488C256.098 94.776 255.538 94.92 254.909 94.92C254.237 94.92 253.634 94.7653 253.101 94.456C252.578 94.1467 252.167 93.7147 251.868 93.16C251.57 92.6053 251.421 91.9707 251.421 91.256C251.421 90.5307 251.581 89.88 251.901 89.304C252.231 88.728 252.685 88.28 253.261 87.96C253.847 87.6293 254.509 87.464 255.245 87.464ZM255.357 93.272C255.954 93.272 256.439 93.08 256.813 92.696C257.186 92.312 257.373 91.8107 257.373 91.192C257.373 90.5733 257.186 90.072 256.813 89.688C256.439 89.2933 255.954 89.096 255.357 89.096C254.759 89.096 254.279 89.288 253.917 89.672C253.565 90.056 253.389 90.5627 253.389 91.192C253.389 91.8213 253.565 92.328 253.917 92.712C254.279 93.0853 254.759 93.272 255.357 93.272ZM264.838 87.464C266.278 87.464 267.388 87.9547 268.166 88.936C268.956 89.9067 269.35 91.2933 269.35 93.096C269.35 94.3547 269.164 95.4373 268.79 96.344C268.417 97.2507 267.878 97.944 267.174 98.424C266.481 98.904 265.654 99.144 264.694 99.144C264.012 99.144 263.345 99.032 262.694 98.808C262.054 98.5733 261.5 98.2427 261.03 97.816L261.718 96.312C262.732 97.1013 263.697 97.496 264.614 97.496C265.457 97.496 266.108 97.1387 266.566 96.424C267.036 95.6987 267.281 94.664 267.302 93.32C267.057 93.8107 266.684 94.2 266.182 94.488C265.692 94.776 265.132 94.92 264.502 94.92C263.83 94.92 263.228 94.7653 262.694 94.456C262.172 94.1467 261.761 93.7147 261.462 93.16C261.164 92.6053 261.014 91.9707 261.014 91.256C261.014 90.5307 261.174 89.88 261.494 89.304C261.825 88.728 262.278 88.28 262.854 87.96C263.441 87.6293 264.102 87.464 264.838 87.464ZM264.95 93.272C265.548 93.272 266.033 93.08 266.406 92.696C266.78 92.312 266.966 91.8107 266.966 91.192C266.966 90.5733 266.78 90.072 266.406 89.688C266.033 89.2933 265.548 89.096 264.95 89.096C264.353 89.096 263.873 89.288 263.51 89.672C263.158 90.056 262.982 90.5627 262.982 91.192C262.982 91.8213 263.158 92.328 263.51 92.712C263.873 93.0853 264.353 93.272 264.95 93.272Z" fill="#121212"/>
<path d="M50 79C50 76.7909 51.7909 75 54 75V75V111V111C51.7909 111 50 109.209 50 107V79Z" fill="#0B24FB"/>
</g>
<path d="M142.292 13.8025C141.511 12.9961 140.238 12.9805 139.456 13.7901L139.094 14.1668C138.85 14.2073 138.591 14.1294 138.401 13.9333C138.165 13.6904 138.108 13.3386 138.223 13.0397L140.117 11.0844C140.898 10.278 140.898 8.96723 140.117 8.15771C139.336 7.35131 138.063 7.33574 137.281 8.14526L130.988 14.6525C130.732 14.7085 130.454 14.6338 130.255 14.4283C130.02 14.1855 129.963 13.8305 130.077 13.5316L136.316 7.09289C137.097 6.28649 137.097 4.9757 136.316 4.16619C135.535 3.35978 134.262 3.34422 133.48 4.15373L131.203 6.50755C130.925 6.60095 130.605 6.53557 130.385 6.30517C130.147 6.0592 130.089 5.69803 130.213 5.39914L131.076 4.50867C131.857 3.70227 131.857 2.39148 131.076 1.58197C130.294 0.775567 129.021 0.759999 128.24 1.56951L120.158 9.91996C119.893 9.98846 119.597 9.91685 119.389 9.70202C119.157 9.46228 119.096 9.10733 119.208 8.81155L122.3 5.6202C123.081 4.8138 123.081 3.50301 122.3 2.69349C121.519 1.88709 120.246 1.87152 119.464 2.68104L112.586 9.79854C111.805 10.6049 111.805 11.9157 112.586 12.7252C113.367 13.5316 114.637 13.5316 115.422 12.7252L116.873 11.2276C117.159 11.1156 117.497 11.1809 117.73 11.4207C117.938 11.6355 118.007 11.9406 117.938 12.2177L115.464 14.7739C114.683 15.5803 114.683 16.8911 115.464 17.7006C116.245 18.507 117.515 18.507 118.3 17.7006L127.854 7.84013C128.144 7.71871 128.49 7.78409 128.726 8.02694C128.949 8.25734 129.012 8.58738 128.919 8.87382L121.009 17.0406C120.228 17.847 120.228 19.1578 121.009 19.9673C121.79 20.7737 123.06 20.7737 123.845 19.9673L127.733 15.954C128.023 15.8388 128.364 15.9041 128.596 16.1439C128.795 16.3494 128.868 16.6389 128.813 16.9036L128.207 17.5325C127.426 18.3389 127.426 19.6497 128.207 20.4592C128.988 21.2656 130.258 21.2656 131.043 20.4592L135.882 15.4651C136.171 15.353 136.509 15.4153 136.741 15.6551C136.931 15.8512 137.007 16.1221 136.965 16.3743L133.335 20.123C132.554 20.9294 132.554 22.2401 133.335 23.0497C134.117 23.8561 135.387 23.8561 136.171 23.0497L142.292 16.7323C143.077 15.9228 143.077 14.612 142.292 13.8025Z" fill="#0B24FB"/>
<path d="M139.467 28.1552C140.458 28.1552 141.262 27.3257 141.262 26.3026C141.262 25.2795 140.458 24.4501 139.467 24.4501C138.476 24.4501 137.672 25.2795 137.672 26.3026C137.672 27.3257 138.476 28.1552 139.467 28.1552Z" fill="#0B24FB"/>
<defs>
<filter id="filter0_d" x="89" y="14" width="276" height="277" filterUnits="userSpaceOnUse" color-interpolation-filters="sRGB">
<feFlood flood-opacity="0" result="BackgroundImageFix"/>
<feColorMatrix in="SourceAlpha" type="matrix" values="0 0 0 0 0 0 0 0 0 0 0 0 0 0 0 0 0 0 127 0"/>
<feOffset dy="2"/>
<feGaussianBlur stdDeviation="4"/>
<feColorMatrix type="matrix" values="0 0 0 0 0 0 0 0 0 0 0 0 0 0 0 0 0 0 0.08 0"/>
<feBlend mode="normal" in2="BackgroundImageFix" result="effect1_dropShadow"/>
<feBlend mode="normal" in="SourceGraphic" in2="effect1_dropShadow" result="shape"/>
</filter>
<filter id="filter1_d" x="0" y="29" width="333" height="136" filterUnits="userSpaceOnUse" color-interpolation-filters="sRGB">
<feFlood flood-opacity="0" result="BackgroundImageFix"/>
<feColorMatrix in="SourceAlpha" type="matrix" values="0 0 0 0 0 0 0 0 0 0 0 0 0 0 0 0 0 0 127 0"/>
<feOffset dy="4"/>
<feGaussianBlur stdDeviation="25"/>
<feColorMatrix type="matrix" values="0 0 0 0 0 0 0 0 0 0 0 0 0 0 0 0 0 0 0.25 0"/>
<feBlend mode="normal" in2="BackgroundImageFix" result="effect1_dropShadow"/>
<feBlend mode="normal" in="SourceGraphic" in2="effect1_dropShadow" result="shape"/>
</filter>
<clipPath id="clip0">
<rect width="169.875" height="18" fill="white" transform="translate(142 254)"/>
</clipPath>
</defs>
</svg>
